<?xml version="1.0" encoding="utf-8"?>
<!-- Generator: Adobe Illustrator 27.7.0, SVG Export Plug-In . SVG Version: 6.00 Build 0)  -->
<svg version="1.1" id="Layer_1" xmlns="http://www.w3.org/2000/svg" xmlns:xlink="http://www.w3.org/1999/xlink" x="0px" y="0px"
	 viewBox="0 0 1366 768" style="enable-background:new 0 0 1366 768;" xml:space="preserve">
<style type="text/css">
	.st0{fill:url(#SVGID_1_);}
	.st1{fill:url(#SVGID_00000000184153109734333220000013590066690077358243_);}
	.st2{fill:url(#SVGID_00000067942054238781757050000012381207082603767742_);}
	.st3{fill:url(#SVGID_00000078030152926240078830000003995580227505195678_);}
	.st4{fill:url(#SVGID_00000181774727533373561850000002764383495687103621_);}
	.st5{fill:url(#SVGID_00000015336180256683706840000003199191698157318027_);}
	.st6{fill:url(#SVGID_00000039103639383170602480000017841490808313592220_);}
	.st7{fill:url(#SVGID_00000012432463448923060100000017029617989575650461_);}
	.st8{fill:url(#SVGID_00000160166690288697795050000014334032197819084953_);}
	.st9{fill:url(#SVGID_00000179619558950116445000000005304323347044484501_);}
	.st10{fill:url(#SVGID_00000126307363898410414310000003868618185375526289_);}
	.st11{opacity:0.9;}
	.st12{stroke:#000000;stroke-width:0.5;stroke-miterlimit:10;}
	.st13{stroke:#000000;stroke-miterlimit:10;}
	.st14{font-family:'Daylight';}
	.st15{font-size:131.4969px;}
	.st16{font-size:124.7397px;}
</style>
<g>
	<g>
		<g>
			<radialGradient id="SVGID_1_" cx="945.2824" cy="530.4266" r="0" gradientUnits="userSpaceOnUse">
				<stop  offset="0" style="stop-color:#FFFFFF"/>
				<stop  offset="1" style="stop-color:#000000"/>
			</radialGradient>
			<path class="st0" d="M945.3,530.4"/>
			<g>
				
					<radialGradient id="SVGID_00000108272150079471786600000007534613991429467325_" cx="690.0472" cy="290.1716" r="4.5898" gradientUnits="userSpaceOnUse">
					<stop  offset="0" style="stop-color:#FFFFFF"/>
					<stop  offset="1" style="stop-color:#000000"/>
				</radialGradient>
				<path style="fill:url(#SVGID_00000108272150079471786600000007534613991429467325_);" d="M688.4,290c-0.2,2-0.8,3.9-1.5,5.8
					c1-1.7,2.1-3.4,3-5.1c1.2-2,2.3-4.1,3.3-6.3C691.4,286.2,689.8,288.1,688.4,290z"/>
				
					<radialGradient id="SVGID_00000170247465880140036690000007128361933183564702_" cx="700.4225" cy="367.655" r="145.5223" gradientUnits="userSpaceOnUse">
					<stop  offset="0" style="stop-color:#FFFFFF"/>
					<stop  offset="1" style="stop-color:#000000"/>
				</radialGradient>
				<path style="fill:url(#SVGID_00000170247465880140036690000007128361933183564702_);" d="M842.7,331.6c-1-2.1-2.4-4-3.9-5.8
					c-3.5-2.4-7.1-4.6-10.9-6.6c-4.7-2.5-9.5-4.8-14.1-7.6c-4.8-3-9.5-6.3-15-8.2c-1.2-0.4-1.2-1.8-0.5-2.4c0-0.1,0-0.2,0-0.2
					c-0.1-0.2-0.2-0.4-0.2-0.6c0.2-2.1,0.6-4.1,0.6-6.2c-0.1-0.4-0.1-0.9-0.2-1.3c-0.2-0.1-0.3-0.3-0.4-0.5
					c-0.1-0.5-0.3-1.1-0.4-1.6c-0.1-0.2-0.1-0.4-0.2-0.6c0,0-0.1-0.2-0.1-0.2c-0.1-0.1-0.1-0.2-0.2-0.3c0,0,0,0,0,0
					c-0.9-0.7-1.9-1.1-3-1.4c-0.1,0-0.1-0.1-0.2-0.1c-0.1,0-0.3-0.1-0.4-0.1c-0.9-0.4-1.4-1.2-1.7-2.1c-2.6-1.4-5.4-2.7-7.8-4.4
					c-3.6-2.5-5.8-5.9-6.9-9.9c-0.1-0.5,0-0.9,0.3-1.2c-0.1-0.5-0.2-1-0.2-1.6c0.3-3.6,0.4-7.1,0-10.7c-0.2-1.3,0.3-2.1,1.7-2.5
					c3.6-0.9,6.3-3.1,8.9-5.5c0.8-0.7,2.3-1.3,1.8-2.5c-0.4-0.9-1.8-0.9-2.8-1.1c-5.9-1.2-12-2.2-16.8-5.7c-6.9-5.1-14.5-6.7-23-5
					c-1.9,0.4-3.5,0-4.4-1.9c-0.3-0.7-1-1.3-1.6-1.8c-8.9-8.7-19.8-12.7-32.8-12.4c-13.5,0.3-26.7,2.5-40.1,3.6
					c0.1,0.3,0.1,0.7-0.1,1c-0.4,0.7-1.3,0.8-1.9,0.5c-0.3-0.1-0.6-0.3-0.8-0.4c-0.1,0-0.1,0-0.2-0.1c0,0,0,0-0.1,0
					c-0.1,0-0.2-0.1-0.3-0.1c-0.4-0.1-0.8-0.2-1.2-0.3c-0.4-0.1-0.8-0.1-1.2-0.2c-1.9,0.1-3.9,0.3-6,0.4c2.4,1.7,5,2.8,4.2,5.9
					c-1.4-0.3-2.7-0.5-4.1-0.4c-4,0.3-7.8,1.2-11.3,2.5c-0.4,0.2-0.8,0.4-1.2,0.6c-3.5,1.8-6.9,3.9-9.9,6.4c-0.4,0.4-0.9,0.3-1.3,0
					c-0.5,0.4-1,0.8-1.6,1.2c-10,8.3-20.8,15.2-33.5,19.4c-2.7,0.9-5.6,1.3-9,2.1c0.5,0.3,1.1,0.7,1.6,1c1,0.1,2,0.2,2.9,0.4
					c1.5,0.3,2.9,0.9,4.3,1.4c2.5,0.9,5.1,1.7,7.3,3.1c0.8,0.5,1.5,1.1,1.5,2c0,0.6-0.3,1.2-0.7,1.7c-0.2,0.5-0.5,0.9-0.7,1.4
					c-0.6,1.3-1.1,2.7-1.9,4c-1.7,5.8-5,11.3-9.1,15.9c-5.4,6.1-12.7,10.8-21,12c0,0,0,0-0.1,0c-2,0.4-4.2,0.8-6.3,0.7
					c-0.1,0-0.2,0-0.2-0.1c0,0,0,0,0,0c-3.2,0.3-6.2-0.5-9-1.7c1.1,3,2.8,5.7,5.1,8c2.8,2.8,6.3,4.9,10,6.7c1.2,0.6,0.7,1.9-0.2,2.3
					c0.2,0.1,0.4,0.1,0.6,0.2c0.1,0,0.1,0,0.2,0c0.1-0.1,0.3-0.1,0.5-0.1c1.5,0.1,2.8-0.7,4.2-0.9c1.7-0.3,3.5-0.5,5.2-0.5
					c0.3,0,0.5,0.1,0.6,0.2c0.6,0,1.2,0.5,1,1.1c-0.5,1.4-1.6,2.2-2.8,3.1c-1.2,1-2.1,2.1-3,3.4c-1.8,3.2-3.5,6.4-5,9.7
					c-0.1,0.2-0.2,0.5-0.3,0.7c-1.4,3.5-2.7,7.1-3.6,10.7c-0.8,3-1.5,6.1-1.7,9.3c0.6,0.2,1.2,0.8,1,1.6c-0.4,2.1-0.6,4.3-0.5,6.4
					c0.1,0.8,0.1,1.7,0.2,2.5c0.3,2,1,3.9,2.1,5.6c0.3,0.1,0.4,0.4,0.5,0.7c0.4,0.5,0.8,1,1.3,1.5c0.8,0.7,0.3,1.7-0.4,2.1
					c0.8,1.8,1.6,3.7,2.2,5.5c1.2,1.8,2,3.7,1.8,5.9c0.5,1.9,1,3.8,1.5,5.7c2.3,9.3,5.8,18.7,6.9,28.2c0.8,3.3,1.2,6.6,1,10.1
					c-0.1,1.8,0.8,1.4,1.9,0.9c5.6-2.3,11.3-4.6,15.9-8.5c1.1-1,1.8-1,2.4-0.4c0.3,0,0.7,0.2,0.9,0.5c0.5-0.6,1.7-0.8,2.3,0.1
					c1.8,2.6,3.6,5.2,5.4,7.8c1.9,2.3,3.9,4.6,5.7,6.9c2.7,3.4,6.1,7.5,7.3,11.9c0.6,0.8,1.1,1.6,1.7,2.4
					c9.1,9.6,16.8,20.2,21.1,32.7c0.7,2,1.5,1.4,2.5,0.5c5.4-5.3,10.9-10.5,14.7-17c2.1-3.7,3.6-7.6,5.2-11.4
					c0.3-0.6,0.4-1.5,1.4-1.4c0.8,0,0.7,0.9,1,1.4c1.2,2.3,2.1,4.8,2.1,7.4c0,2.4,0.8,2.4,2.7,1.3c5.7-3.2,11.3-6.7,15.7-11.5
					c1.2-1.3,2.1-1.6,3.4,0.1c4.4,5.7,9.9,10.6,14.9,15.8c9.8,10.3,12.2,22.2,9.8,35.3c-0.1,0.7-1,1.6,0,2.2
					c0.8,0.5,1.6-0.2,2.4-0.5c4.8-2.4,9-5.6,12.3-9.7c4.4-5.4,7.8-11.2,10.3-17.7c1.5,3.5,1.8,7.2,1.9,10.8
					c0.3,7.2,1.5,14.4-1.1,21.4c-0.7,1.8,0.7,1.6,2,1.4c5.4-0.7,10.2-2.8,14.4-5.7c15.6-10.6,26.2-24.9,32.7-41.7
					c1.3-3.2,2.5-6.1,5.1-8.8c6.4-6.8,7.7-15.2,7.3-23.9c-0.4-9-3-17.6-6.6-26c-0.7-0.1-0.9-0.9-0.6-1.4c-0.4-0.7-1-1.4-0.3-2.5
					c0.5,0.2,0.9,0.4,1.4,0.7c0.2-0.2,0.3-0.3,0.6-0.4c0.4-0.1,0.9,0,1.1,0.4c0.1,0.1,0.1,0.2,0.2,0.3c0.2,0.1,0.4,0.2,0.5,0.5
					c0.3,0.6,0.7,1.2,1.1,1.7c1.1,1.2,2.5,2.3,4,2.7c0.4-0.3,0.8-0.6,1.2-1.1c0.6-0.6,1.1-1.3,1.7-1.9c0.5-1.7,1.5-3,3.1-4
					c0,0,0,0,0,0c0.5-0.7,1.1-1.4,2-1c1.4,0.5,0.3,1.7,0.2,2.6c-0.1,0.6-0.5,1.1,0.2,2c1-0.8,1.8-1.7,2.6-2.6c0-0.9-0.3-1.8-0.9-2.7
					c-0.9-1.3,1.1-2.7,2.2-1.6c0.3,0.3,0.7,0.7,1.1,1c0.1-0.1,0.1-0.2,0.2-0.2c5.4-8.5,5-17.8,4.4-27.1c-0.1-2,0.1-3.7,0.9-5.4
					c1.1-2.3,2-4.7,2.8-7.2c0-1.8,0-3.6,0.1-5.4c0.2-2.8,0.5-5.7,1.3-8.5c0.6-1.9,1.6-4.1,3.6-5c0,0,0,0,0,0
					c0.1-0.1,0.2-0.3,0.4-0.4c0.6-0.4,1.2-0.9,1.8-1.4C843.1,338.5,843.8,335.2,842.7,331.6z M803.1,442.8c-0.1,0.5-0.5,0.8-0.9,0.9
					c0,1,0,2.1,0,3.1c0,0.9-0.1,1.7-0.1,3c-1.9-1.5-1.9-3.3-2.4-4.9c-2-7-5.4-13.1-12.1-17.2c-0.3-0.2-0.7-0.3-1.3-0.4
					c2.6,3.2,4.5,6.7,5.8,10.6c4.6,13.4,1.9,25.7-5.8,37.4c-6.8,10.3-14.9,19.7-22.8,29.2c-0.3,0.4-0.7,0.7-1.1,1.1
					c-0.6,0.6-1.2,1.2-2.2,0.8c-0.8-0.4-0.7-1.2-0.7-1.8c0.2-2.1,0.3-4.2,0.7-6.2c3.1-15.6-2.1-29.7-9.5-43.3c-2-3.7-4.2-7.4-6.6-11
					c0,0,0,0,0,0c1.4,5.4,1.1,10.7,0.3,16c-1.7,10.5-5.4,20.5-9.8,30.2c-1,2.2-2.1,4.2-3.6,6.3c0-2.1,0-4.2,0-6.3
					c0.2-11.3-4.4-20.7-13.4-28c-8.5-6.9-16.2-14.3-21-23.9c0.1,1.4,0.2,2.7,0.2,4.1c0,0.3-0.1,0.6-0.3,0.8
					c-0.1,1.1-0.3,2.2-0.6,3.2c-1.1,3.9-3.2,8.1-6.5,10.8c-1.3,1-2.9,2-4.6,1.9c-1.8-0.1-3.1-1.3-4-2.7c-0.6-0.1-1.1-0.5-1.1-1.2
					c0-6.2-0.1-12.4-1.2-18.5c-0.5-2.8-1.3-5.6-2.3-8.3c-1.2-2.3-2.7-4.5-4.4-6.7c0.3,10.1-2,19.3-5.5,28.2
					c-1.7,8.4-4.1,16.6-10.2,23.3c-0.3,0.4-0.7,0.5-1.1,0.4c-0.3,0.7-0.8,1.2-1.5,1.2c-2.2,0-1.7-2.6-2.5-4
					c-5.6-10.8-12.9-20.4-21.3-29.4c-2.9-3-5.2-6.3-7.1-9.6c-3-4.4-4.9-9.3-5.3-14.5c-0.6-3.1-0.9-6.3-1-9.6
					c-0.1-6.9-0.4-13.8,1-20.6c-4.9,10.7-3.9,21.7-2.1,32.9c-4.3-4.5-5.1-10.2-6.1-16.2c-0.3-0.3-0.6-0.7-0.9-1
					c-0.5,1.4-1,2.7-1.6,4c-0.3,2.5-0.9,4.9-2,7.2c-2.1,4.6-5.7,8.2-10,11c-0.9,0.6-2.1-0.2-2.1-1.1c-0.2-4.1-0.5-8.1-1.3-12.1
					c-0.8-3.9-2.5-7.2-4.3-10.8c-3.8-7.7-2.9-16-2.9-24.1c-0.4-4.5,0-9.1,1.6-13.5c1-2.7,2.5-5.2,4.4-7.4c0.2-0.6,0.5-1.3-0.2-1.8
					c-0.2-0.2-0.5-0.2-0.7-0.2c0,0.3-0.1,0.6-0.4,0.9c-4.7,3.9-7.5,9.6-9.2,15.2v4c0,1.2-2,1.9-2.6,0.7c-0.4-0.8-0.8-1.7-1.1-2.6
					c0,0,0,0,0,0c-1.6-0.2-1.5-1.7-1.5-2.9c0-0.8,0.1-1.6,0.1-2.4c-0.7-4.1-0.5-8.4,0.7-12.4c-0.1-0.2-0.2-0.6,0-0.9
					c0.7-1.9,1.4-3.7,2.2-5.5c0.5-2.5,1.7-4.9,2.9-7.1c0-0.1,0.1-0.1,0.1-0.2c0.3-0.9,0.8-1.7,1.3-2.4c0.1-0.1,0.1-0.3,0.2-0.4
					c0.6-1.1,1.4-2.2,2.3-3.2c0-0.1,0.1-0.2,0.1-0.3c0.1-0.5,0.4-0.8,0.8-0.9c0.1-0.2,0.3-0.4,0.5-0.5c7.9-13.1,19.7-23.4,34-32.1
					c5-3,9.8-6.2,15.3-8.5c0.6-0.3,1.4-0.5,1.8-1.3c-1.5,0-3.2,1-4.5,1.5c-1.8,0.6-3.5,1.3-5.3,2c-1,1-2.3,1.7-3.6,2.3
					c-0.4,0.2-0.8,0.3-1.2,0.5c0,0.3-0.1,0.6-0.4,0.8c-1.3,0.7-2.7,1.1-4.1,1.6c-0.5,0.2-1.1,0.3-1.6,0.6c-1.4,0.8-2.8,1.6-4.1,2.5
					c-1.8,1.2-3.6,2.5-5.4,3.7c-1.7,1.2-3.4,2.5-5.2,3.6c-1.3,0.8-2.7,1.9-4.3,2.2c-0.1,0-0.1,0.1-0.2,0.1c-1.4,0.5-3,0.7-4.5,0.9
					c-0.4,0.1-0.7,0.1-1.1,0.2c-1.1,0.3-2.3,0.5-3.5,0.6c-1.3,0.2-2.6,0.5-3.9,0.7c-2.6,0.5-5.4,0.9-7.9,0c-1.1-0.4-2.2-0.9-3.2-1.5
					c-2.8-0.8-5.3-2.3-7-4.9c-0.4-0.6-0.9-1.2-0.3-1.9c0.5-0.5,1.2-0.2,1.8-0.1c12,2,21.3-2,28.6-10.9c3.1-3.8,6.3-7.5,8.9-11.5
					c1.9-2.9,4-5.4,6.3-7.8c0.6-1.5,1.6-2.9,2.7-3.9c2.8-2.7,6.1-4.8,9.6-6.5c1-0.5,2.1-0.9,3.2-1.3c0.5-0.4,1.1-0.6,1.8-0.7
					c0.2-0.1,0.4-0.2,0.7-0.2c1-0.5,2.1-0.9,3.2-1.3c0.4-0.2,0.7-0.4,1.1-0.6c1.8-0.8,3.7-1.3,5.6-1.5c2.6-0.7,5.2-1.2,7.8-1.5
					c3.2-0.5,6.4-0.9,9.6-1.4c1.9-0.3,4-0.5,5.9,0c0.3,0,0.7-0.1,1-0.1c0.2,0,0.4,0,0.6,0c1.1-0.2,2.2-0.5,3-1.1
					c-6.1-2.1-12.2-2-18.4-1.4c-0.8,0.1-1.6,0.2-2.5,0.3c-0.1,0.2-0.3,0.3-0.6,0.4c-3.6,0.7-7.3,1.5-10.9,2.6
					c-2.4,0.8-4.7,1.9-7.2,2.2c-0.8,0.3-1.7,0.7-2.5,1c-2.7,1.2-5.5,1.9-8.4,2.3c-0.1,0-0.2,0.1-0.3,0.1c-1.1,0.2-2.2,0.5-3.3,0.6
					c-1,0.1-2.1,0-3-0.5c-1-0.1-2.1-0.2-3.1-0.3c-0.7-0.1-1.6-0.1-1.7-1c0-0.7,0.8-0.9,1.4-1c10.2-2.3,17.5-9,25.5-14.6
					c6.3-4.4,12.8-8.5,20.2-10.9c7.1-2.3,14.8-2.4,22.3-1.3c9.1,1.3,18,3.3,26.5,6.8c0.4,0.2,0.9,0.6,1.9,0
					c-7.9-6.5-18-8.4-28.1-12.1c1.8-0.4,2.7-0.7,3.6-0.8c10.3-0.8,20.6-2.1,31-2c7.2,0,13.5,2,19.3,5.8c4.5,3,8.7,6.3,12.3,10.2
					c1.1,1.2,2.1,1.4,3.6,0.7c0.9-0.5,1.9-0.8,2.9-1.2c5.1-2.2,10-2.6,14.6,0.1c2.7,0.2,5.6,0.8,8.1,1.6c2.6,0.8,6.5,2.1,7.3,4.8
					c0.1,0.2,0,0.4,0,0.6c0.8,0.3,1.7,0.6,2.5,0.9c-7.6,1.3-15.2-0.8-22.9,0.6c2.1,0.7,4.3,1.3,6.4,2.2c8.4,3.4,10.7,10.6,5.6,17.7
					c-1.2,1.7-1.9-0.2-2.3-1c-2.7-5.1-7.2-8.4-12.3-11.2c-6.2-3.4-12.6-5-19.7-3.3c-4.7,1.1-9.4,0.1-13.9-0.9
					c-0.1,0.1-0.3,0.1-0.4,0.1c-0.6,0-1.3-0.1-1.9-0.2c-0.2,0-0.4,0-0.6,0c-2-0.2-3.9-0.9-5.6-1.9c-2.8-0.7-5.7-1.5-8.5-2.2
					c-0.3-0.1-0.7,0-1.3,0c0,0,0,0,0,0c0.3,0.3,0.5,0.5,0.8,0.7c1.1,0.9,2.4,1.7,3.8,2.4c0.3,0.2,0.5,0.5,0.4,0.8
					c0.7,0.3,1.3,0.7,1.9,1.2c-0.7,1.4-2.3,1.3-3.4,1.7c-6.1,2.2-8.9,5.4-8.4,11.5c0.1,1.3,0.1,2.6,0.1,3.9c1-1.3,1.9-2.6,2.8-4
					c0.9-1.3,2.9-0.4,2.6,1c-0.6,3-2,5.7-3.8,8.2c-0.4,1.3-0.9,2.6-1.7,3.8c-1.2,3.6-3,7-4.8,10.3c-0.6,1-1.1,2-1.7,2.9
					c1.1-0.8,2.2-1.5,3.3-2.2c2.1-1.4,2.8-1.5,3.3,0.1c0.2,0.1,0.4,0.2,0.6,0.3c0.3,0.2,0.4,0.6,0.4,0.9v0.7c0,0.1,0.1,0.1,0.1,0.2
					c0.2,0.2,0.4,0.3,0.4,0.6c0,0.1,0,0.2,0,0.4c0.8,1.9,1,4.1,0.5,6.2c0,0.1-0.1,0.2-0.1,0.2c0,0,0,0.1,0.1,0.1
					c0.1,0.4,0.1,0.8-0.3,1.2c0,0,0,0,0,0c0,0,0,0,0,0c-0.2,0.2-0.4,0.4-0.6,0.6c-0.1,0.2-0.2,0.4-0.2,0.6c-0.5,1.9-1.3,3.8-2.6,5.7
					c-0.3,0.6-0.6,1.1-0.9,1.7c4.6-0.8,8.3-3.8,13.8-4.5c-7.3,9.7-9.3,19.8-8.9,30.8c0.5,11,3.4,20.8,13.3,28
					c-1.1-3.1-2-6.1-2.1-9.2c-0.1-0.5-0.1-1-0.1-1.5c0-0.2,0.1-0.4,0.2-0.6c0.2-2.2,0.9-4.4,2.3-6.6c0.3,7.8,6.1,13.1,9.8,19.3
					c1.9,3.1,3.6,6.1,4.9,9.5c0.2,0.1,0.4,0.1,0.6,0.3c3.6,3.2,6.1,7.4,8.8,11.3c2.7,1.8,5.8,3.4,9.4,4.8c-0.8-2-2.1-3.8-3.5-5.5
					c-3.3-3.2-7.1-6-10.4-9.4c-0.2-0.2-0.3-0.5-0.4-0.8c-0.2,0-0.3,0-0.5,0c-1.8,0.2-2.6-2.3-0.8-2.6c0.4-0.1,0.8-0.1,1.2-0.1
					c-0.1-0.1-0.1-0.1-0.2-0.2c0.1,0,0.3,0.1,0.4,0.1c3.9-0.2,7.5,0.9,10.9,2.7c6.7,3.7,12.1,9.4,16.9,15.2
					c5.5,5.5,10.5,11.5,15.6,17.6c0.2-0.1,0.4-0.3,0.6-0.4c-1.3-5.7-2.5-11.4-3.8-17.4c-1.6,0-1.6-2.4,0.2-2.6c4.2-0.5,8.4,0,12.1,2
					c6.3,3.3,9.9,9.7,12.2,15.8c0.2,0.5,0.4,1,0.6,1.6c0.8,1.3,1.4,2.6,2,4C805,422,804.6,433.7,803.1,442.8z M714.5,291.7
					c0.8,1,0.6,2-0.1,3c-0.1,0.2-0.3,0.4-0.5,0.6c0.1,0.7,0.2,1.5,0,2.3c-0.2,1.4-1,2.6-2,3.6c-2,2.1-4.8,3.3-7.4,4.6
					c-0.9,0.4-2.1-0.1-2.1-1.1c0-2.4,0.7-4.8,1.5-7c-1.3-4.2-2.4-8.5-2.3-13.1c0.5-5.4,1-11,1.7-16.6c0.4-3.3,2.7-6.2,5.9-8
					c1.7-1.2,3.5-2.2,5.6-2.7c0.6-0.2,1.3,0.1,1.6,0.7c0.1,0,0.1,0,0.2,0c8.4-0.1,14.6,4.1,19.5,10c2,2.4,1.7,5.2,0.5,7.9
					c-0.6,1.4-1.6,2.8-2.5,4.1c-2.3,3.5-2.5,3.5-5.8,0.6c-2.8-2.5-5.7-4.7-10.1-3.7c-3.4,0.8-5.4,2.6-5.7,5.8
					C712.4,285.7,712.3,288.9,714.5,291.7z M824.4,392.6c-0.1,0.2-0.3,0.3-0.6,0.4c-0.2,0.1-0.5,0-0.7-0.1c-0.5-0.3-0.8-0.7-1-1.2
					c0,0,0,0,0,0c-0.3,0.1-0.6,0-0.9-0.2c-0.9-0.7,0.3-1.1,0.5-1.7c0-0.1,0-0.1,0.1-0.2c-0.3-0.6-0.6-1.1-0.8-1.7
					c-0.4,0.8-0.5,1.7-0.8,2.5c-0.5,1.7-1.1,3.3-1.8,4.9c0,0.3-0.1,0.6-0.1,0.8c-0.6,3.6-2.7,9.1-7.7,8.1c-0.5-0.1-0.8-0.7-0.6-1.2
					c0,0-0.1-0.1-0.1-0.1c-0.3-0.4-0.4-0.9,0-1.3c0,0,0,0,0,0c0-0.2,0.1-0.4,0.3-0.5c0.2-0.2,0.4-0.3,0.6-0.4c0.2-0.4,0.5-0.7,0.6-1
					c0.8-2,1.6-4,1.7-6.4c-1.9,0.9-3.9,1.3-6,1.3c-0.3,0.1-0.6,0.1-0.9,0.2c0-0.1,0.1-0.1,0.1-0.2c-7.7-0.5-15.4-6.8-18.5-13.3
					c-0.5-0.5-0.9-1-0.7-1.7c0.2-0.6,0.7-0.7,1.2-0.7c0.4-0.1,0.9-0.1,1.3,0.1c1.5,0.1,3,0.1,4.5,0c3.3-0.5,6.3-1.9,9.6-2.4
					c0.2,0,0.4,0,0.5,0c3-1.2,5.8-2.9,8.6-4.9c1.2-0.8,2.4-1.6,3.7-2.2c1.6-0.8,2.8-0.4,4,1.1c4.1,5.3,4.8,11.3,4.6,17.5
					c0,0.4-0.1,0.7-0.2,1c0.1,0.1,0.2,0.3,0.2,0.5C825.1,390.6,825,391.6,824.4,392.6z M838.3,334.7c0.2,1.1-0.1,2.3-0.8,3.3
					c-1.4,2.1-3.9,3.3-6.6,3.5c-3.8,0.3-7.3-1.2-10.9-2.5c-2-0.3-3.9-0.8-5.8-1.8c-0.5-0.2-0.9-0.5-1.7,0.1c1.2,2.5,3.3,4.1,6,5.1
					c3,1.2,6.6,1.6,7.1,5.7c0.1,1,1.4,2,2.3,0c0.2-0.6,0.5-1.2,1.3-1.1c0.6,0.1,0.8,0.6,0.7,1.1c-1.2,6.5-0.2,13.6-4.8,19.4
					c-0.5,0.6-0.7,1.7-1.7,1.4c-1.3-0.3-0.9-1.4-0.8-2.3c0-0.7,0.3-1.4,0.4-2c0.1-0.6,0.1-1.1,0.2-2.2c-4.1,2.7-7.8,5.3-11.6,7.7
					c-3.2,2-6.6,3.9-10.6,4.7c-8.7,1.8-16.5-5-15-13.3c0.6-3.4,1.5-6.8,2.5-10.1c1.2-4.3-0.5-7.5-3.9-10.2c-0.4-0.3-0.8-0.5-1.1-0.7
					c-0.7,0.4-1.3,0.8-2,1.2c-0.1,0.2-0.1,0.4-0.1,0.6c-0.1,1-0.2,1.9-0.2,2.9c0.7,1.8,2,3.4,2.2,5.4c0.3,3.7-2.6,5.8-5.1,8.2
					c-3.2,3.1-5.5,7.4-6.2,11.8c0,4.9,1.6,9.6,3.9,14.3c0.4,0.9,1,1.7,1.5,2.6c0.1,0.3,0.2,0.6,0.5,1.5
					c-9.3-4.5-16.3-10.8-22.8-17.5c-6.6-6.7-9.5-15.7-15.7-22.8c2.7,10.7,7.7,20.4,13.5,30c-13.1-5.7-23.4-14-28.6-27.2
					c-1.3,3.7-1.6,7.2,0.1,11.1c-2.2-1.5-3.9-4.7-5.5-10.7c-0.3-0.1-0.5-0.3-0.6-0.5c-0.7-1.5-1.2-3.1-1.6-4.7
					c-0.2-0.2-0.3-0.4-0.3-0.7v-0.4c-0.7-3.3-1.2-6.7-2.3-10c-2.3,3-3.9,6.2-4.9,9.7c-0.3,0.9-0.4,2.4-1.6,2.3
					c-1.6-0.2-1-1.8-0.9-2.7c0.3-17.9,5.1-34.3,16.6-48.6c-1.2-1.7-2.2-3.6-2.6-5.6c-0.5-2.2-0.1-4.6,2.2-5.8c1.4-0.7,3-0.8,4.5-0.7
					c1.5,0.1,2.9,0.5,4,1.5c0.1,0.1,0.2,0.2,0.3,0.3c2.2,0.6,3.7,0.2,5-1.8c3.6-5.3,6.8-10.7,5.5-17.4c-0.5-2.4-1.2-4.3-4.1-5
					c-1.6-0.4-3.3-1.1-5.1-2.9c8.7-0.3,16.4,0.9,22.6,5.8c3.2,2.5,6.4,5,9.5,7.7c0.5-0.7,1.8-0.9,2.4,0c3,4,6.5,7.5,10.2,10.8
					c3.4,3,7.2,5.6,10.7,8.5c2.1,1.8,4.2,3.9,4.2,6.7c0,2.1-1,4-2.2,5.8l0,0c7.3,4.7,15.4,8.4,23.1,12.4c1.6,0.8,3.2,1.7,4.7,2.6
					c5.8,2.8,11.3,6.1,16.3,10c0.6,0.2,1.1,0.4,1.6,0.7c1.2,0.9,2,2.1,2.5,3.4C839.1,333.8,838.8,334.4,838.3,334.7z"/>
				
					<radialGradient id="SVGID_00000071549353923741880280000018030880138218896779_" cx="785.0855" cy="396.3445" r="3.3999" gradientUnits="userSpaceOnUse">
					<stop  offset="0" style="stop-color:#FFFFFF"/>
					<stop  offset="1" style="stop-color:#000000"/>
				</radialGradient>
				<path style="fill:url(#SVGID_00000071549353923741880280000018030880138218896779_);" d="M781.1,393.6c2.9,1.4,5.6,3.2,7.9,5.4
					C786.9,396.5,784.2,394.6,781.1,393.6z"/>
				
					<radialGradient id="SVGID_00000075843092469520965990000000449699743964015775_" cx="768.3503" cy="308.1991" r="7.2135" gradientUnits="userSpaceOnUse">
					<stop  offset="0" style="stop-color:#FFFFFF"/>
					<stop  offset="1" style="stop-color:#000000"/>
				</radialGradient>
				<path style="fill:url(#SVGID_00000075843092469520965990000000449699743964015775_);" d="M777.7,312.2c-0.2-0.2-0.5-0.4-0.8-0.6
					c-1.3-0.3-2.5-0.7-3.2-1.7c-0.2-0.3-0.3-0.5-0.5-0.8c-1-0.9-1.5-2-1.2-3.7c-0.1-0.4-0.2-0.8-0.3-1.2c-2.3,0.5-4.6,1.2-6.9,1.7
					c-0.9,0.4-1.8,0.7-2.8,0.8c-1,0.1-2.1,0.1-3.1,0.1c0.7,0.4,1.5,0.8,2.2,1.2C766.9,307.8,772.2,310.8,777.7,312.2z"/>
			</g>
			
				<radialGradient id="SVGID_00000072245784713312804150000004706190884098730887_" cx="705.3461" cy="365.9539" r="142.8038" gradientUnits="userSpaceOnUse">
				<stop  offset="0" style="stop-color:#FFFFFF"/>
				<stop  offset="1" style="stop-color:#000000"/>
			</radialGradient>
			<path style="fill:url(#SVGID_00000072245784713312804150000004706190884098730887_);" d="M842.1,329.3c-1-2.1-2.3-4-3.8-5.7
				c-3.3-2.4-6.8-4.6-10.5-6.6c-4.5-2.5-9.2-4.8-13.5-7.5c-4.7-2.9-9.2-6.2-14.4-8.2c-1.1-0.4-1.1-1.8-0.4-2.4c0-0.1,0-0.2,0-0.3
				c-0.1-0.2-0.2-0.4-0.2-0.6c0.1-2,0.5-4.1,0.6-6.1c0-0.2-0.1-0.4-0.1-0.6c0.2-0.2,0.3-0.5,0.2-0.8c-1.2-2.9-3.6-5.3-6.6-6.5
				c0-0.1-0.1-0.2-0.1-0.3c-2.5-1.4-5.2-2.7-7.5-4.4c-3.4-2.4-5.4-5.6-6.5-9.5c0.6-0.4,1.1-0.8,1.6-1.4c1.1-1.4,1.3-3.3,1.2-5.1
				c-0.2-3-1.1-5.9-2.2-8.7c4.8-0.4,9.4-2.2,13.2-5.3c2.3-1.8,0.4-5.7-2.4-5.6c-5.2,0.2-9.9-2-14.6-4.2c-4.1-2.7-8.4-5.3-13.3-6.5
				c-2.4-0.6-4.9-0.7-7.4-0.4c-2.7,0.4-5.3,1.7-8.1,1.5c-4-7-10.1-11.6-18-14.1c-7.9-2.5-16.4-2.6-24.6-1.6
				c-1.3,0.2-2.6,0.3-3.9,0.5c-3.3,0-6.7,0.2-10,0.6c-5.2,0.6-10.3,2.3-15.6,1.7c-0.8-0.1-1,0.7-0.7,1.3c0,0.1,0,0.1-0.1,0.2
				c-0.4,0.7-1.2,0.8-1.9,0.5c-0.3-0.1-0.5-0.3-0.8-0.4c0,0-0.1,0-0.1-0.1c0,0,0,0-0.1,0c-0.1,0-0.2-0.1-0.3-0.1
				c-0.4-0.1-0.8-0.2-1.2-0.3c-0.8-0.2-1.7-0.3-2.5-0.5c-0.1,0-0.2,0.1-0.3,0.1c-2-0.9-4.1-1.3-6.3-1.2c-1.1,0-1.6,1.5-0.6,2
				c1.5,0.8,3,1.6,4.5,2.5c-0.2,0.1-0.3,0.2-0.4,0.4c-0.1,0-0.2,0-0.2,0c-12.4,3.8-23.7,10.4-32.9,19.3c-3.7,2.6-7.5,5-11.5,7.1
				c-2.2,1.1-4.5,2.1-6.9,2.9c0,0.2-0.2,0.4-0.4,0.5c-2.9,1.4-6.2,1.8-9.3,2.5c-2.7,0.6-5.3,1.6-8,1.9c0.1,0.4,0.6,0.8,1.1,0.8
				c0.6-0.1,1.2-0.1,1.9-0.1c0.3,0.1,0.6,0.2,0.9,0.3c1.2,0.1,2.4,0.2,3.6,0.5c1.4,0.3,2.7,0.9,4.1,1.4c2.4,0.9,4.9,1.7,7,3.1
				c0.7,0.5,1.4,1.1,1.4,2c0,0.6-0.3,1.2-0.7,1.7c-0.2,0.5-0.4,0.9-0.6,1.3c-0.6,1.4-1.1,2.8-1.9,4.2c-1.6,5.7-4.7,11.1-8.6,15.6
				c-5.2,6-12.2,10.7-20.2,12c0,0,0,0-0.1,0c-2,0.4-4,0.8-6,0.7c-0.1,0-0.1,0-0.2-0.1c0,0,0,0,0,0c-3.1,0.3-5.9-0.5-8.7-1.7
				c1.1,2.9,2.7,5.6,4.9,7.9c2.7,2.8,6,4.9,9.6,6.6c1.2,0.6,0.7,2-0.3,2.3c0.1,0.1,0.2,0.1,0.3,0.2c0.1,0,0.3,0,0.4,0
				c0.1-0.1,0.3-0.1,0.5-0.1c1.4,0.1,2.7-0.7,4-0.9c1.6-0.3,3.3-0.5,5-0.5c0.3,0,0.5,0.1,0.6,0.2c0.6,0,1.2,0.5,0.9,1.1
				c-0.5,1.4-1.6,2.1-2.7,3.1c-1.3,1.1-2.3,2.5-3.3,3.9c-2.1,3-3.4,6.3-4.7,9.7c-1.3,3.5-2.6,7-3.5,10.6c-0.8,3-1.4,6.1-1.7,9.2
				c0.6,0.2,1.1,0.8,1,1.6c-0.3,2-0.6,4.1-0.5,6.2c0.1,1,0.1,1.9,0.2,2.8c0.3,1.9,0.9,3.7,2,5.4c0.2,0.1,0.4,0.4,0.5,0.7
				c0.4,0.5,0.8,1,1.3,1.5c0.8,0.7,0.3,1.7-0.4,2.1c2.3,5.4,3.9,11.1,5.3,16.9c2.6,10.9,6.9,22,7,33.3c0,2.3-0.2,4.7-0.7,6.9
				c7.3-0.9,14-4.3,19-9.5c0,0,0.1,0,0.1,0c0.1,0,0.2,0,0.3,0.1c0.5-0.7,1.7-1,2.3-0.1c0.5-0.6,1.6-0.8,2.2,0.1
				c1.8,2.6,3.5,5.2,5.2,7.7c1.8,2.3,3.7,4.5,5.4,6.8c2.6,3.4,5.9,7.5,7,11.8c2.8,4.1,5.6,8.2,8.2,12.4c3.6,5.8,7.1,11.6,10.6,17.5
				c1.4,2.3,2.7,4.6,4.1,6.9c0.9,0.2,1.8,0.1,2.5-0.4c8.9-6.2,15.7-15,19.2-25c0.7,1.4,1.5,2.8,2.2,4.1c0.8,1.5,3.2,2.1,4.7,1.2
				c5.7-3.4,11.1-7.2,16.4-11.3c13.5,11.7,29.7,27.5,23.2,46.4c-0.1,0.4-0.2,0.8-0.1,1.2c-0.6,1.1-1.1,2.3-1.4,3.6
				c-0.1,0.4,0,0.6,0.2,0.9c-0.5,1.2-1,2.5-1.3,3.8c-0.3,0.9,0.9,1.4,1.5,0.9c2.4-2,4.9-4.1,7.3-6.1c0.2-0.1,0.2-0.3,0.3-0.6
				c4.9-3.3,9-7.8,12.1-12.8c0.7-1.1,1.3-2.2,1.8-3.4c1.4-1.8,2.8-3.8,4-5.7c1.9,3.3,2.5,7.1,2.7,10.9c0.1,2.8,0.2,5.6,0.2,8.4
				c-0.6,2.7-1.3,5.4-2.1,8c-0.8,2.4,1.8,4.7,4.2,4c8.5-2.4,16.1-6.9,22.6-12.8c6.8-6.2,11.8-13.8,16.6-21.5
				c9.5-15.3,20-32.5,17.7-51.1c-1-7.7-3.8-15-7.2-22c-0.7-0.2-0.8-1.1-0.3-1.5c0,0,0,0,0,0c0-0.2-0.1-0.4-0.1-0.6
				c0-0.5,0.4-0.8,0.8-0.8c0.2-0.2,0.4-0.5,0.7-0.5c0.4-0.1,0.9,0,1,0.4c0.4,0.9,1,1.7,1.6,2.4c1.2,1.3,2.6,2.6,4.3,3c0,0,0,0,0,0
				c0,0,0.1,0,0.1,0c0.1,0,0.2,0,0.3,0c0,0,0.1,0,0.2,0c0.1,0,0.1,0,0.2,0c0.2-0.1,0.4-0.2,0.7-0.4c0.2-0.2,0.4-0.5,0.5-0.9
				c0-0.1,0-0.3-0.1-0.4c0.1-0.5,0.3-0.9,0.4-1.4c0-0.1,0-0.2,0-0.3c0,0,0.1,0,0.1-0.1c0.5-1.5,1.4-2.8,3-3.7c0.9-0.5,1.7,0,1.9,0.8
				c0.1-0.1,0.3-0.2,0.4-0.3c-0.4,1.3-0.8,2.6-1.3,3.9c-0.3,1,1.1,1.9,1.9,1.1c0.3-0.4,0.6-0.8,0.9-1.2c1-2,1.4-4,0-6.1
				c-0.9-1.3,1.1-2.7,2.1-1.6c0.6,0.6,1.4,1.5,2.4,1.7c0.4,0.1,0.7,0,1-0.2c1.2-0.9,1.7-3,2-4.3c0.4-1.7,0.7-3.4,0.8-5.1
				c0-1,0.1-2,0.2-3.1c0-0.8,0-1.5,0-2.2c0-0.2,0-0.4,0.1-0.6c0.5-8,1.4-15.9,2.5-23.8c0-2.1,0-4.2,0.1-6.3c0.2-2.8,0.4-5.7,1.3-8.4
				c0.6-1.9,1.5-4,3.5-4.9c0,0,0,0,0,0c0.1-0.1,0.2-0.3,0.4-0.4c0.6-0.4,1.2-0.9,1.7-1.4C842.4,336.1,843,332.9,842.1,329.3z
				 M679.8,422.6c-0.2,2.2-0.4,4.4-0.8,6.6c0.3-2.4,0.5-4.7,0.5-7.1C679.6,422.2,679.7,422.4,679.8,422.6
				C679.8,422.5,679.8,422.6,679.8,422.6z M804,439.6c-0.1,0.4-0.4,0.7-0.8,0.9c0,1.5-0.1,2.9-0.2,4.4c-2.6-7.7-6.8-14.8-12.2-20.9
				c-0.2-0.2-0.4-0.3-0.6-0.3c-0.8-1-2.7,0-1.9,1.2c5.3,7.5,7.5,15.5,7.6,23.6c-3.2,17.1-13.8,31.8-24.5,45.4c-1.6,2-3.1,4-4.8,5.9
				c-1.1,1.3-2.2,2.4-3.6,3.4c1.8-15.1,0.2-30.6-4.6-45.1c-0.1-0.4-0.5-0.6-0.8-0.6c-2-5.9-4.7-11.8-8.9-16.4
				c-0.2,0.1-0.5,0.1-0.8,0c-0.5-0.1-1.1-0.3-1.6-0.4l0.3,0.9c0,1.2,0,2.4,0,3.5c0,0.1,0,0.3,0.1,0.4c-0.1,0.3-0.2,0.7-0.2,1.1
				c1.4,15.7-2.8,31.4-11.8,44.3c0-0.3-0.1-0.6-0.1-0.9c0.2-0.2,0.4-0.4,0.4-0.8c0-0.4,0-0.8,0-1.2c2.7-10.5-4-20.6-11.3-27.9
				c-7.9-7.9-17.9-14.7-21.2-25.7c-0.2-0.6-0.7-0.8-1.1-0.8c0.1,1.8,0.3,3.7,0.3,5.6c0,0.3-0.1,0.5-0.3,0.7
				c-0.1,1.1-0.3,2.2-0.5,3.2c-1,3.8-3.1,8-6.2,10.7c-1.2,1-2.8,2-4.4,1.9c-1.7-0.1-3-1.3-3.8-2.6c-0.6-0.1-1-0.5-1-1.2
				c0-6.1,0-12.3-1.1-18.4c-1-5.7-3-11.1-5.8-16.2c-0.6-0.1-1.4,0.2-1.3,1c0.2,9.8-1.5,19.6-4.8,28.8c-1.7,8.1-4,16.1-9.7,22.5
				c-1.1,1.2-2.8-0.3-2.1-1.6c0.6-1.1,1.2-2.2,1.8-3.4c-1.4,1.3-2.4,2.9-3.1,4.7c-2.9-5.9-6.2-11.6-10.1-17
				c-4.1-5.7-9.1-10.8-13.2-16.5c-0.8-1-1.5-2.1-2.2-3.2c-5.5-6.2-9-14.1-8.2-22.4c0-0.1,0.1-0.2,0.1-0.3c-0.6-3.4-0.9-6.9-1.1-10.4
				c0.4-5,0.8-10.1,1.2-15.1c0.1-1.4-2.2-1.4-2.3,0c0,0.1,0,0.1,0,0.2c-0.2,0.2-0.4,0.4-0.5,0.8c-0.6,4.6-0.9,9.3-0.7,13.9
				c-0.2,2-0.3,4-0.5,6c-0.1,1.4-0.2,2.8-0.3,4.1c-1.3-2.8-2.5-5.7-3.7-8.5c-0.5-0.6-1-1.1-1.5-1.7c-0.4,0-0.8,0.1-1,0.5
				c0.1,3.8-0.5,7.6-2.1,11.1c-2,4.5-5.5,8.1-9.6,10.9c-0.9,0.6-2-0.2-2-1.1c-0.2-4-0.4-8.1-1.3-12c-0.8-3.8-2.4-7.2-4.1-10.7
				c-3.6-7.6-2.8-15.8-2.8-24c-0.4-4.5,0-9.1,1.5-13.3c1.1-3.2,2.9-6,5.2-8.4c0.1-0.2,0.2-0.3,0.3-0.5c0.8-1.1-0.9-2.1-1.8-1.3
				c-0.2,0.1-0.3,0.3-0.4,0.4c0.2,0.4,0.1,0.9-0.3,1.3c-4.5,3.9-7.2,9.5-8.8,15v4c0,1.2-2,1.9-2.5,0.7c-2.8-5.9-3.6-13.5-1.7-20.1
				c-0.1-0.2-0.2-0.5,0-0.9c0.6-1.9,1.3-3.7,2.1-5.5c0.5-2.5,1.6-4.9,2.8-7.1c0-0.1,0.1-0.1,0.1-0.2c0.3-0.8,0.7-1.6,1.3-2.4
				c0.1-0.1,0.1-0.3,0.2-0.4c0.6-1.1,1.3-2.2,2.2-3.1c0-0.1,0-0.2,0.1-0.3c0.1-0.5,0.4-0.8,0.8-0.9c0.2-0.3,0.5-0.6,0.7-0.8
				c1.5-2.1,3-4.2,4.5-6.2c7.3-9.4,16.4-17.6,26.6-23.9c5.9-3.7,12.1-6.7,18.6-9.2c0.9-0.3,1-1.4,0.4-1.9h-0.8c-0.1,0-0.2,0-0.3-0.1
				c0,0,0,0-0.1,0c-0.2,0-0.5,0.1-0.8,0.1c-0.5,0.1-1,0.3-1.5,0.5c-0.7,0.3-1.5,0.7-2.1,0.9c-1.7,0.6-3.4,1.3-5.1,2
				c-1,1-2.2,1.7-3.5,2.3c-0.4,0.2-0.8,0.3-1.1,0.5c0,0.3-0.1,0.6-0.4,0.8c-1.2,0.7-2.6,1.1-3.9,1.6c-0.5,0.2-1,0.3-1.5,0.6
				c-1.3,0.8-2.7,1.6-4,2.5c-1.8,1.2-3.5,2.4-5.2,3.7c-1.6,1.2-3.2,2.5-5,3.6c-1.3,0.8-2.6,1.9-4.1,2.2c-0.1,0-0.1,0.1-0.2,0.1
				c-1.4,0.5-2.9,0.7-4.3,0.9c-2.7,0.5-5.4,1.1-8.1,1.6c-2.5,0.5-5.2,0.9-7.6,0c-2.4-0.8-4.6-2.4-6.8-3.8c-0.1,0-0.2,0-0.3-0.1
				c-0.1,0-0.1-0.1-0.2-0.1l0,0c0,0-0.1-0.1-0.1-0.1c-0.1-0.1-0.2-0.2-0.3-0.2c0,0,0,0,0,0c-0.1-0.1-0.2-0.2-0.3-0.3
				c-0.3-0.3-0.6-0.6-0.9-0.9c-0.3-0.4-0.4-0.8-0.1-1.2c0.3-0.3,0.8-0.5,1.2-0.2c0.3,0,0.7,0,1,0.1c1.4-0.1,2.7,0,4.1,0
				c0.2,0,0.3,0,0.4,0.1c0.1,0,0.2,0,0.3,0c0.4-0.1,0.9-0.1,1.3-0.1c0.3,0,0.7-0.1,1-0.1c5.5-1.1,10.7-3.5,15.2-6.9
				c8.3-6.2,13.5-15,18-24.1c0.2-0.7,0.6-1.4,1-2c0-0.1,0.1-0.1,0.1-0.2c0,0,0.1-0.1,0.1-0.1c0.5-0.7,1-1.3,1.5-1.9
				c2.6-2.7,5.8-4.8,9.2-6.4c0.8-0.4,1.7-0.8,2.5-1.1c0.2-0.1,0.4-0.2,0.6-0.3c0.3-0.2,0.7-0.4,1.1-0.5c1.7-0.8,3.4-1.5,5.2-2.1
				c0,0,0,0,0.1,0c1.5-0.7,3.1-1.2,4.8-1.4c5.2-1.4,10.6-2.3,16-2.7c0.5-0.1,0.9-0.1,1.4-0.2c1.6-0.3,3.4-0.5,5.1-0.1
				c0.9,0,1.7-0.1,2.6-0.1c1.2-0.3,2.2-0.7,2.9-1.5c-0.1-0.3-0.3-0.6-0.7-0.7c-6.8-1.7-13.3-1.3-19.8,0.1c-0.1,0.2-0.3,0.3-0.6,0.4
				c-3.1,0.6-6.3,1.3-9.3,2.3c-0.5,0.2-1,0.3-1.6,0.5c-2,0.7-3.9,1.6-6,2c-3.6,1.2-7.1,2.3-10.8,3.2c-0.1,0.1-0.3,0.3-0.4,0.3
				c-1.1,0.2-2.1,0.4-3.1,0.6c-0.1,0-0.3,0-0.4,0c-0.2,0-0.4,0.1-0.6,0.1c-0.1-0.1-0.3-0.1-0.4-0.2c-0.6-0.1-1.2-0.3-1.7-0.6
				c-0.1,0-0.1-0.1-0.2-0.2c-0.8-0.3-1.5-0.6-2.3-1c15.4-5.2,27.4-18,42-25.2c1.5-0.8,3.1-1.4,4.7-2c0.2,0.1,0.3,0.1,0.5,0
				c7-1.7,14.3-1,21.3,0.4c7,1.3,13.9,3.4,20.5,6c1,0.4,3,1.6,3.7,0.2c0.4-0.8-0.6-1.7-1.4-1.4c-0.1-0.1-0.2-0.2-0.4-0.3
				c-6.1-3.4-12.4-6.5-18.8-9.2c-0.5-0.2-1-0.4-1.5-0.6c10.2-1.2,20.4-1.9,30.7-2.2c2.7-0.1,5.6-0.3,8.3,0.4
				c0.5,0.1,0.9,0.3,1.3,0.5c0,0,0,0,0.1,0c0,0,0.1,0.1,0.1,0.1c0,0,0.1,0.1,0.1,0.1s0.1,0.1,0.1,0.1c0,0,0.1,0.1,0.1,0.1
				c0.1,0.1,0.2,0.2,0.3,0.3c0.2,0.2,0.6,0.3,0.8,0.2c1.3,0.8,2.5,1.7,3.6,2.7c4.4,3.9,8.8,7.7,13.2,11.6c0.2,0.2,0.4,0.2,0.6,0.3
				c0.7,0.5,1.8,0,1.8-0.8c0.3,0.1,0.7,0.2,1,0.2c0.7,0.1,1.3,0,2-0.1c0.1-0.2,0.3-0.4,0.5-0.5c1.4-0.4,2.8-0.7,4.3-0.8
				c0.2-0.1,0.5-0.1,0.7-0.2c2.4-0.6,4.7-0.5,7,0.1c0.1-0.1,0.3-0.2,0.6-0.2c3,0,6.1,0.8,8.9,1.7c2.5,0.8,6.3,2.1,7,4.8
				c0.1,0.3,0,0.5-0.1,0.6c0.1,0.1,0.2,0.1,0.4,0.2c-0.2,0-0.3,0-0.5,0c-0.2,0.2-0.6,0.3-0.9,0.3c-0.3-0.1-0.6-0.1-0.9-0.2
				c-2.7-0.1-5.5-0.7-7.9-2c-0.4-0.2-0.8-0.3-1.2-0.4c-0.3-0.2-0.7-0.3-1.2-0.1c-2.9,1.2-6.1,2.1-9.2,2.5c-0.4,0.1-0.7,0.4-0.8,0.8
				c-0.2,0.2-0.4,0.4-0.4,0.7c-0.1,0.5,0.3,1.1,0.8,1.2c1.3,0.3,2.6,0.3,3.9,0.1c1.7,0.2,3.4,0.5,5,1.1c4.1,2.7,6.5,7,7.3,11.6
				c-0.7,0.7-1.1,1.7-1.1,2.7c-0.5,0.4-0.9,0.9-1.3,1.4c-1.2-1.3-2.4-2.4-3.7-3.6c-1.3-1.8-3-3.3-4.9-4.6c-2.2-1.6-4.6-3.1-7.1-4.2
				c-4.7-2.2-9.6-2.4-14.6-2.1c-1.4-0.1-2.9-0.2-4.3-0.3c-3.8-0.1-7.7-0.1-11.5-0.3c-0.1,0.2-0.4,0.3-0.7,0.3
				c-0.6,0-1.2-0.1-1.8-0.2c-0.2,0-0.4,0-0.5,0c-2.2-0.2-4.2-1.1-6.1-2.2c0,0,0,0,0,0c-0.8-0.2-1.5-0.4-2.2-0.7
				c-0.1,0-0.1,0-0.2-0.1c0,0,0,0-0.1,0c-1.9-1.3-3.9-2.5-6-3.6c-0.6-0.3-1.2,0.1-1.3,0.6c0.2,0.5,0.5,1,0.7,1.4
				c0.1,0.2,0.3,0.3,0.5,0.5c0.2,0.3,0.5,0.5,0.8,0.7c1,0.9,2.3,1.7,3.6,2.4c0.7,0.4,0.5,1.4-0.3,1.6c0.2,0.1,0.4,0.2,0.6,0.3
				c-2.8,0.5-5.3,2.2-7.1,4.4c-3.1,3.9-3.3,9.1-3.4,13.9c0,0.1,0,0.1,0,0.2c1.3-1.8,2.6-3.7,3.8-5.5c0.9-1.3,2.8-0.4,2.5,1
				c-0.6,3-1.9,5.7-3.7,8.1c-0.4,1.3-0.9,2.6-1.6,3.8c-1.1,3.6-2.9,7-4.7,10.2c-1.4,2.5-2.8,4.9-4.3,7.4c2.7-2.4,5.3-4.8,8-7.2
				c0.1,0.2,0.1,0.4,0.1,0.5c0.1,0,0.3-0.1,0.5-0.1c0.3,0,0.7,0.2,1,0.4c0.2,0.2,0.4,0.6,0.4,0.9v0.7c0,0.1,0.1,0.1,0.1,0.2
				c0.2,0.2,0.4,0.3,0.4,0.6c0,0.1,0,0.2,0,0.4c0.8,1.9,0.9,4.1,0.5,6.1c0,0.1-0.1,0.1-0.1,0.2c0,0,0,0,0,0.1
				c0.2,0.4,0.1,0.9-0.2,1.3c0,0,0,0,0,0c0,0,0,0,0,0c-0.2,0.2-0.4,0.4-0.6,0.6c-1.3,3.7-3.1,7.3-5.2,10.6c0.1,0,0.3,0,0.5-0.1
				c1.7-0.6,3.3-1.3,4.9-2c2-0.4,4-0.9,6-1.3c-4,9.3-6,19.5-5.5,29.6c0.2,5.2,0.8,10.8,3,15.6c3.2,3.5,6.5,6.9,9.4,10.6
				c0.2,0.2,0.3,0.5,0.3,0.7c0,0,0,0,0,0c0.7,0.8,1.8,0.1,1.9-0.8c0-0.1,0-0.2,0-0.4c-0.3-0.1-0.6-0.4-0.7-0.8
				c-1.2-3.6-2.7-7.1-2.8-10.9c0-0.7,0.5-1.2,1.2-1.3c0.2,0,0.5,0,0.7,0.1c-0.1-0.5-0.1-1-0.2-1.5c0,0,0,0,0,0
				c0.2,0.6,0.4,1.2,0.7,1.8c0.1,0.2,0.3,0.3,0.4,0.5c0.2,0.5,0.4,1.1,0.6,1.6c1.8,3.5,4.2,6.8,6.3,10c2.2,3.3,4.4,6.6,6.7,9.9
				c0,0.1,0.1,0.2,0.2,0.3c0.2,0.1,0.4,0.1,0.6,0.3c3.9,3.6,6.5,8.3,9.4,12.7c1.9,2.9,4.1,5.7,6.8,7.7c0.1,0.1,0.2,0.2,0.3,0.3
				c0.6,0.4,1.6,0,1.7-0.7c0-0.1,0-0.2,0-0.4c-0.1-1.5-0.5-3-1.2-4.4c-0.1-0.2-0.3-0.4-0.4-0.6c0-0.1-0.1-0.2-0.1-0.4
				c-0.3-0.5-0.5-0.9-0.8-1.4c-0.5-0.6-1-1.1-1.5-1.7c-0.3-0.4-0.7-0.8-1.1-1.2c-0.4-0.5-0.8-0.9-1.2-1.4c-2.7-2.4-5.5-4.7-8-7.3
				c-0.2-0.2-0.3-0.5-0.4-0.8c-0.2,0-0.3,0-0.5,0c-1.7,0.2-2.5-2.3-0.7-2.5c0.4-0.1,0.8-0.1,1.2-0.1c0,0,0,0,0,0c0,0,0,0,0.1,0
				c3.7-0.2,7.3,0.8,10.5,2.7c7.8,4.4,13.6,11.7,19,18.5c3.2,4.1,6.3,8.6,9.6,12.8c0.4,0.5,0.9,1,1.3,1.5c0.8,0.9,2.1-0.1,1.9-1.1
				c-0.6-2.7-1.2-5.4-1.8-8.1c-0.3-1.6-0.6-3.3-1.1-4.8c-0.3-1.3-0.6-2.6-0.9-3.9c-1.5-0.1-1.4-2.4,0.2-2.6c4-0.5,8.1,0,11.6,2
				c6,3.3,9.5,9.6,11.7,15.6c0.2,0.5,0.4,1,0.5,1.6c0.8,1.3,1.4,2.6,1.9,4C805.8,418.9,805.4,430.6,804,439.6z M741,271.9
				C741,271.9,741,271.9,741,271.9c-1.1,2.7-2.7,6.2-5.3,8c-0.7-0.6-1.4-1.3-2.1-1.9c-2.9-2.2-6.8-3.6-10.5-3.3
				c-8.5,0.9-7.1,11-4.6,16.9c-0.1,0.1-0.3,0.3-0.4,0.4c0.4,1.1,0.5,2.2,0.3,3.3c-0.2,1.4-1,2.6-1.9,3.6c-1.9,2-4.6,3.3-7.1,4.5
				c-0.9,0.4-2.1-0.1-2-1.1c0-2.7,0.8-5.2,1.7-7.7c-1-2.9-1.7-5.8-2.2-8.8c0-1.1,0-2.2,0-3.3c0.2-5.8,1-11.7,3.3-17
				c0.1-2,0.9-3.9,2.2-5.4c-0.2-0.6,0.1-1.2,0.6-1.5c1.6-1.2,3.3-2.2,5.1-2.9c0-0.1,0-0.2,0-0.2c0.2,0,0.3,0.1,0.5,0.1
				c0.2-0.1,0.4-0.2,0.7-0.2c1.4,0.9,2.9,1.7,4.5,2.4c3.9,1.8,7.9,3.1,12.1,4c2.3,1.8,4.5,4.2,4.5,7c0,0.7,0.5,1,1,1
				c-0.1,0.4-0.2,0.8-0.3,1.2C740.8,271.3,740.9,271.6,741,271.9z M824.4,389.8c-0.1,0.2-0.3,0.3-0.5,0.4c-0.2,0.1-0.5,0-0.7-0.1
				c-0.5-0.3-0.8-0.7-1-1.2c-0.1-0.3-0.1-0.6-0.2-1c0-0.2-0.1-0.3-0.1-0.5c0-0.2,0-0.3,0-0.5c-0.4-0.7-0.7-1.4-0.9-2.2
				c-0.4,0.1-0.7,0.3-0.9,0.7c-0.5,1.5-0.9,2.9-1.4,4.4c0,0.1,0,0.1,0,0.2c0,1-0.1,2.1-0.3,3.1c-0.6,3.6-2.6,9-7.4,8
				c-0.5-0.1-0.8-0.7-0.6-1.2c0,0-0.1-0.1-0.1-0.1c-0.3-0.4-0.4-0.9,0-1.2c0,0,0,0,0,0c0-0.2,0.1-0.3,0.2-0.5
				c0.3-0.3,0.6-0.5,0.9-0.7c0.6-1.7,1.2-3.4,1.6-5.2c0.1-0.6,0-1.2-0.3-1.7c-9.3,4-20.6-4.6-24-13.1c-0.6-1.6,1.9-2.2,2.6-0.8
				c0.3-0.3,0.8-0.4,1.2-0.3c0.1,0,0.2-0.1,0.3-0.1c3.7,0,7-1.7,10.6-2.4c0.2-0.1,0.5-0.2,0.7-0.2c0.8-0.2,1.7-0.4,2.5-0.6
				c4.5-1.5,8.3-4.2,12.1-7c3.2,3.3,5.3,7.5,5.8,12.1c0,0.3,0.2,0.5,0.3,0.7c-0.2,2.4-0.3,4.7-0.5,7.1c0.3,0.1,0.5,0.5,0.5,0.8
				C825.1,387.8,825,388.8,824.4,389.8z M837.8,332.3c0.2,1.1-0.1,2.3-0.7,3.3c-1.4,2.1-3.8,3.3-6.3,3.5c-5.1,0.3-9.5-2.6-14.2-3.8
				c-0.3-0.1-0.5-0.2-0.6-0.4c0-0.2-0.1-0.4-0.1-0.6c0-0.2-0.1-0.3-0.2-0.5c0,0,0,0,0,0c0,0,0,0,0,0c-0.2-0.2-0.4-0.3-0.7-0.3
				c-0.1,0-0.2,0-0.4,0.1c-0.3,0.1-0.5,0.2-0.6,0.5c-0.5,0.3-0.8,0.9-0.5,1.5c0.5,0.9,1.1,1.6,1.9,2.2c0.5,0.7,1,1.3,1.7,1.8
				c0.8,0.6,1.8,0.9,2.8,1.2c0.9,0.2,1.9,0.4,2.7,1.1c0.1,0.1,0.3,0.2,0.4,0.2c0.9,1.3,1.7,2.8,2.3,4.3c0.3,0.9,2,1.2,2.2,0
				c0.2-1.2,1.2-1.9,2.3-1.8c-1.1,6-2.1,12-2.9,18.1c-0.2,0.3-0.4,0.6-0.6,0.9c-0.4,0.1-0.7,0.5-0.7,1c0,0,0,0,0,0
				c-0.1,0.2-0.2,0.3-0.3,0.5c0,0-0.1,0.1-0.1,0.1c-0.1,0.1-0.1,0.1-0.2,0.2c0,0-0.1,0.1-0.1,0.1c0,0,0,0-0.1,0c0,0,0,0,0,0
				c0,0,0,0-0.1,0c0,0,0,0,0,0c0,0-0.1,0-0.1,0c0.2,0,0,0-0.1,0c0,0,0,0-0.1,0c0,0,0,0-0.1,0c0,0-0.2-0.1-0.2-0.1
				c-0.1,0-0.1-0.1-0.1-0.1c0,0,0,0,0,0c0,0-0.1-0.1-0.1-0.1c0,0-0.1-0.1-0.1-0.1c0-0.1-0.1-0.2-0.1-0.3c-0.1-0.3,0-0.8,0-1.1
				c0.2-1.1,0.5-2.2,0.2-3.4c-0.1-0.5-0.7-0.7-1.1-0.6c-0.4,0.1-0.6,0.5-0.6,0.9c-0.2-0.1-0.5-0.1-0.7-0.1c-5.3,1.8-8.9,5.9-13.3,9
				c-0.5,0.2-1.1,0.4-1.6,0.6c-1.8,0.8-3.6,1.7-5.4,2.6c0,0,0,0-0.1,0c-0.9,0-1.8,0-2.7-0.1c-0.8-0.1-1.7-0.3-2.5-0.4
				c-2.2-0.9-4-2.7-5.2-4.7c-0.4-0.7-1.2-0.6-1.7-0.2c-0.2-6.6,1.5-13.3,2.2-19.7c0.4-3.2,0.4-7.4-3-9.1c-0.6-0.3-1.3-0.5-2.1-0.6
				c-1.1,0.7-2.2,1.3-3.3,2c0,0.1,0,0.1,0,0.2c-1.1,3.1,2,5.4,2.2,8.4c0.3,3.7-2.5,5.7-4.9,8.1c-5.5,5.4-8,14.5-4.5,21.4
				c0.2,0.5,0.1,1-0.1,1.3c0.1,0.3,0.3,0.6,0.4,0.9c-0.7-0.1-1.5-0.1-2.2,0c-14.1-5.8-23.3-20.1-27.1-34.2c-0.8-2.8-4.8-1.5-4.4,1.2
				c1.3,8.7,4.2,17,8.6,24.7c-8.8-5.6-16-13.4-20.9-22.6c-0.8-1.6-3.9-1.4-4.1,0.5c-0.2,1.1-0.2,2.3-0.3,3.4
				c-0.6-1.1-1.1-2.2-1.6-3.3c-0.5,0-1-0.2-1.2-0.6c-0.7-1.5-1.2-3.1-1.6-4.6c-0.2-0.2-0.3-0.4-0.3-0.8v-0.4
				c-0.8-3.7-1.3-7.5-2.7-11.1c-0.5,0.2-0.9,0.4-1.2,0.8c-2.5,3.8-3.9,8-4.4,12.4c-0.4-1.5-0.8-3.1-1-4.7
				c-0.1-5.3,0.6-10.7,1.9-15.9c0.9-3.6,2.1-7.1,3.5-10.5c3.4-4.8,6.1-9.9,8-15.4c0.9-1.4,1.7-2.8,2.6-4.2c-1.2-1.8-2.3-3.8-2.8-5.9
				c-0.4-2.2-0.1-4.6,2.2-5.7c1.3-0.7,2.9-0.8,4.3-0.7c1.4,0.1,2.8,0.5,3.9,1.5c0.5,0.5,0.8,1,1,1.6c0.2,0,0.3,0,0.5,0
				c3.1,0,4.4-2.9,5.7-5.1c3.1-5.6,5.6-12.8,1.8-18.7c-1.2-1.9-2.7-3.3-4.4-4.4c6.5-0.7,12.9,2.1,18.2,5.7c3.1,2.1,6,4.5,8.9,6.8
				c2.2,1.8,4.4,3.5,6.6,5.3c1.9,2.2,4,4.3,6.2,6.2c2.5,2.2,5.2,4.3,7.8,6.4c0.1,0.2,0.2,0.3,0.4,0.4c2.6,1.7,4.7,4.1,5.8,6.9
				c0.1,0.1,0.1,0.3,0.2,0.4c0.1,0.3,0.1,0.7,0.1,1.1c0,2.2-1,4.2-2.3,6.1c0.3,0.3,0.6,0.6,1,0.8c8.6,3.9,16.9,8.3,24.9,13.3
				c0.1,0,0.2,0,0.3,0.1c5.9,2.9,11.4,6.3,16.5,10.3c0.5,0.2,1.1,0.4,1.5,0.7c1.2,0.9,1.9,2,2.4,3.4
				C838.6,331.5,838.3,332,837.8,332.3z"/>
		</g>
		<g>
			
				<linearGradient id="SVGID_00000080889145617418595660000017632692804022290094_" gradientUnits="userSpaceOnUse" x1="694.0046" y1="284.4479" x2="700.3334" y2="284.4479">
				<stop  offset="0" style="stop-color:#FFFFFF"/>
				<stop  offset="1" style="stop-color:#000000"/>
			</linearGradient>
			<path style="fill:url(#SVGID_00000080889145617418595660000017632692804022290094_);" d="M695.5,284.3c-0.2,2-0.8,3.9-1.5,5.8
				c1-1.7,2.1-3.4,3-5.1c1.2-2,2.3-4.1,3.3-6.3C698.5,280.5,696.9,282.4,695.5,284.3z"/>
			
				<linearGradient id="SVGID_00000021104716515573918670000005719155881014742179_" gradientUnits="userSpaceOnUse" x1="564.7286" y1="361.9314" x2="850.3599" y2="361.9314">
				<stop  offset="0" style="stop-color:#FFFFFF"/>
				<stop  offset="1" style="stop-color:#000000"/>
			</linearGradient>
			<path style="fill:url(#SVGID_00000021104716515573918670000005719155881014742179_);" d="M849.9,325.9c-1-2.1-2.4-4-3.9-5.8
				c-3.5-2.4-7.1-4.6-10.9-6.6c-4.7-2.5-9.5-4.8-14.1-7.6c-4.8-3-9.5-6.3-15-8.2c-1.2-0.4-1.2-1.8-0.5-2.4c0-0.1,0-0.2,0-0.2
				c-0.1-0.2-0.2-0.4-0.2-0.6c0.2-2.1,0.6-4.1,0.6-6.2c-0.1-0.4-0.1-0.9-0.2-1.3c-0.2-0.1-0.3-0.3-0.4-0.5c-0.1-0.5-0.3-1.1-0.4-1.6
				c-0.1-0.2-0.1-0.4-0.2-0.6c0,0-0.1-0.2-0.1-0.2c-0.1-0.1-0.1-0.2-0.2-0.3c0,0,0,0,0,0c-0.9-0.7-1.9-1.1-3-1.4
				c-0.1,0-0.1-0.1-0.2-0.1c-0.1,0-0.3-0.1-0.4-0.1c-0.9-0.4-1.4-1.2-1.7-2.1c-2.6-1.4-5.4-2.7-7.8-4.4c-3.6-2.5-5.8-5.9-6.9-9.9
				c-0.1-0.5,0-0.9,0.3-1.2c-0.1-0.5-0.2-1-0.2-1.6c0.3-3.6,0.4-7.1,0-10.7c-0.2-1.3,0.3-2.1,1.7-2.5c3.6-0.9,6.3-3.1,8.9-5.5
				c0.8-0.7,2.3-1.3,1.8-2.5c-0.4-0.9-1.8-0.9-2.8-1.1c-5.9-1.2-12-2.2-16.8-5.7c-6.9-5.1-14.5-6.7-23-5c-1.9,0.4-3.5,0-4.4-1.9
				c-0.3-0.7-1-1.3-1.6-1.8c-8.9-8.7-19.8-12.7-32.8-12.4c-13.5,0.3-26.7,2.5-40.1,3.6c0.1,0.3,0.1,0.7-0.1,1
				c-0.4,0.7-1.3,0.8-1.9,0.5c-0.3-0.1-0.6-0.3-0.8-0.4c-0.1,0-0.1,0-0.2-0.1c0,0,0,0-0.1,0c-0.1,0-0.2-0.1-0.3-0.1
				c-0.4-0.1-0.8-0.2-1.2-0.3c-0.4-0.1-0.8-0.1-1.2-0.2c-1.9,0.1-3.9,0.3-6,0.4c2.4,1.7,5,2.8,4.2,5.9c-1.4-0.3-2.7-0.5-4.1-0.4
				c-4,0.3-7.8,1.2-11.3,2.5c-0.4,0.2-0.8,0.4-1.2,0.6c-3.5,1.8-6.9,3.9-9.9,6.4c-0.4,0.4-0.9,0.3-1.3,0c-0.5,0.4-1,0.8-1.6,1.2
				c-10,8.3-20.8,15.2-33.5,19.4c-2.7,0.9-5.6,1.3-9,2.1c0.5,0.3,1.1,0.7,1.6,1c1,0.1,2,0.2,2.9,0.4c1.5,0.3,2.9,0.9,4.3,1.4
				c2.5,0.9,5.1,1.7,7.3,3.1c0.8,0.5,1.5,1.1,1.5,2c0,0.6-0.3,1.2-0.7,1.7c-0.2,0.5-0.5,0.9-0.7,1.4c-0.6,1.3-1.1,2.7-1.9,4
				c-1.7,5.8-5,11.3-9.1,15.9c-5.4,6.1-12.7,10.8-21,12c0,0,0,0-0.1,0c-2,0.4-4.2,0.8-6.3,0.7c-0.1,0-0.2,0-0.2-0.1c0,0,0,0,0,0
				c-3.2,0.3-6.2-0.5-9-1.7c1.1,3,2.8,5.7,5.1,8c2.8,2.8,6.3,4.9,10,6.7c1.2,0.6,0.7,1.9-0.2,2.3c0.2,0.1,0.4,0.1,0.6,0.2
				c0.1,0,0.1,0,0.2,0c0.1-0.1,0.3-0.1,0.5-0.1c1.5,0.1,2.8-0.7,4.2-0.9c1.7-0.3,3.5-0.5,5.2-0.5c0.3,0,0.5,0.1,0.6,0.2
				c0.6,0,1.2,0.5,1,1.1c-0.5,1.4-1.6,2.2-2.8,3.1c-1.2,1-2.1,2.1-3,3.4c-1.8,3.2-3.5,6.4-5,9.7c-0.1,0.2-0.2,0.5-0.3,0.7
				c-1.4,3.5-2.7,7.1-3.6,10.7c-0.8,3-1.5,6.1-1.7,9.3c0.6,0.2,1.2,0.8,1,1.6c-0.4,2.1-0.6,4.3-0.5,6.4c0.1,0.8,0.1,1.7,0.2,2.5
				c0.3,2,1,3.9,2.1,5.6c0.3,0.1,0.4,0.4,0.5,0.7c0.4,0.5,0.8,1,1.3,1.5c0.8,0.7,0.3,1.7-0.4,2.1c0.8,1.8,1.6,3.7,2.2,5.5
				c1.2,1.8,2,3.7,1.8,5.9c0.5,1.9,1,3.8,1.5,5.7c2.3,9.3,5.8,18.7,6.9,28.2c0.8,3.3,1.2,6.6,1,10.1c-0.1,1.8,0.8,1.4,1.9,0.9
				c5.6-2.3,11.3-4.6,15.9-8.5c1.1-1,1.8-1,2.4-0.4c0.3,0,0.7,0.2,0.9,0.5c0.5-0.6,1.7-0.8,2.3,0.1c1.8,2.6,3.6,5.2,5.4,7.8
				c1.9,2.3,3.9,4.6,5.7,6.9c2.7,3.4,6.1,7.5,7.3,11.9c0.6,0.8,1.1,1.6,1.7,2.4c9.1,9.6,16.8,20.2,21.1,32.7c0.7,2,1.5,1.4,2.5,0.5
				c5.4-5.3,10.9-10.5,14.7-17c2.1-3.7,3.6-7.6,5.2-11.4c0.3-0.6,0.4-1.5,1.4-1.4c0.8,0,0.7,0.9,1,1.4c1.2,2.3,2.1,4.8,2.1,7.4
				c0,2.4,0.8,2.4,2.7,1.3c5.7-3.2,11.3-6.7,15.7-11.5c1.2-1.3,2.1-1.6,3.4,0.1c4.4,5.7,9.9,10.6,14.9,15.8
				c9.8,10.3,12.2,22.2,9.8,35.3c-0.1,0.7-1,1.6,0,2.2c0.8,0.5,1.6-0.2,2.4-0.5c4.8-2.4,9-5.6,12.3-9.7c4.4-5.4,7.8-11.2,10.3-17.7
				c1.5,3.5,1.8,7.2,1.9,10.8c0.3,7.2,1.5,14.4-1.1,21.4c-0.7,1.8,0.7,1.6,2,1.4c5.4-0.7,10.2-2.8,14.4-5.7
				c15.6-10.6,26.2-24.9,32.7-41.7c1.3-3.2,2.5-6.1,5.1-8.8c6.4-6.8,7.7-15.2,7.3-23.9c-0.4-9-3-17.6-6.6-26
				c-0.7-0.1-0.9-0.9-0.6-1.4c-0.4-0.7-1-1.4-0.3-2.5c0.5,0.2,0.9,0.4,1.4,0.7c0.2-0.2,0.3-0.3,0.6-0.4c0.4-0.1,0.9,0,1.1,0.4
				c0.1,0.1,0.1,0.2,0.2,0.3c0.2,0.1,0.4,0.2,0.5,0.5c0.3,0.6,0.7,1.2,1.1,1.7c1.1,1.2,2.5,2.3,4,2.7c0.4-0.3,0.8-0.6,1.2-1.1
				c0.6-0.6,1.1-1.3,1.7-1.9c0.5-1.7,1.5-3,3.1-4c0,0,0,0,0,0c0.5-0.7,1.1-1.4,2-1c1.4,0.5,0.3,1.7,0.2,2.6c-0.1,0.6-0.5,1.1,0.2,2
				c1-0.8,1.8-1.7,2.6-2.6c0-0.9-0.3-1.8-0.9-2.7c-0.9-1.3,1.1-2.7,2.2-1.6c0.3,0.3,0.7,0.7,1.1,1c0.1-0.1,0.1-0.2,0.2-0.2
				c5.4-8.5,5-17.8,4.4-27.1c-0.1-2,0.1-3.7,0.9-5.4c1.1-2.3,2-4.7,2.8-7.2c0-1.8,0-3.6,0.1-5.4c0.2-2.8,0.5-5.7,1.3-8.5
				c0.6-1.9,1.6-4.1,3.6-5c0,0,0,0,0,0c0.1-0.1,0.2-0.3,0.4-0.4c0.6-0.4,1.2-0.9,1.8-1.4C850.3,332.8,850.9,329.5,849.9,325.9z
				 M810.3,437.1c-0.1,0.5-0.5,0.8-0.9,0.9c0,1,0,2.1,0,3.1c0,0.9-0.1,1.7-0.1,3c-1.9-1.5-1.9-3.3-2.4-4.9c-2-7-5.4-13.1-12.1-17.2
				c-0.3-0.2-0.7-0.3-1.3-0.4c2.6,3.2,4.5,6.7,5.8,10.6c4.6,13.4,1.9,25.7-5.8,37.4c-6.8,10.3-14.9,19.7-22.8,29.2
				c-0.3,0.4-0.7,0.7-1.1,1.1c-0.6,0.6-1.2,1.2-2.2,0.8c-0.8-0.4-0.7-1.2-0.7-1.8c0.2-2.1,0.3-4.2,0.7-6.2
				c3.1-15.6-2.1-29.7-9.5-43.3c-2-3.7-4.2-7.4-6.6-11c0,0,0,0,0,0c1.4,5.4,1.1,10.7,0.3,16c-1.7,10.5-5.4,20.5-9.8,30.2
				c-1,2.2-2.1,4.2-3.6,6.3c0-2.1,0-4.2,0-6.3c0.2-11.3-4.4-20.7-13.4-28c-8.5-6.9-16.2-14.3-21-23.9c0.1,1.4,0.2,2.7,0.2,4.1
				c0,0.3-0.1,0.6-0.3,0.8c-0.1,1.1-0.3,2.2-0.6,3.2c-1.1,3.9-3.2,8.1-6.5,10.8c-1.3,1-2.9,2-4.6,1.9c-1.8-0.1-3.1-1.3-4-2.7
				c-0.6-0.1-1.1-0.5-1.1-1.2c0-6.2-0.1-12.4-1.2-18.5c-0.5-2.8-1.3-5.6-2.3-8.3c-1.2-2.3-2.7-4.5-4.4-6.7c0.3,10.1-2,19.3-5.5,28.2
				c-1.7,8.4-4.1,16.6-10.2,23.3c-0.3,0.4-0.7,0.5-1.1,0.4c-0.3,0.7-0.8,1.2-1.5,1.2c-2.2,0-1.7-2.6-2.5-4
				c-5.6-10.8-12.9-20.4-21.3-29.4c-2.9-3-5.2-6.3-7.1-9.6c-3-4.4-4.9-9.3-5.3-14.5c-0.6-3.1-0.9-6.3-1-9.6
				c-0.1-6.9-0.4-13.8,1-20.6c-4.9,10.7-3.9,21.7-2.1,32.9c-4.3-4.5-5.1-10.2-6.1-16.2c-0.3-0.3-0.6-0.7-0.9-1c-0.5,1.4-1,2.7-1.6,4
				c-0.3,2.5-0.9,4.9-2,7.2c-2.1,4.6-5.7,8.2-10,11c-0.9,0.6-2.1-0.2-2.1-1.1c-0.2-4.1-0.5-8.1-1.3-12.1c-0.8-3.9-2.5-7.2-4.3-10.8
				c-3.8-7.7-2.9-16-2.9-24.1c-0.4-4.5,0-9.1,1.6-13.5c1-2.7,2.5-5.2,4.4-7.4c0.2-0.6,0.5-1.3-0.2-1.8c-0.2-0.2-0.5-0.2-0.7-0.2
				c0,0.3-0.1,0.6-0.4,0.9c-4.7,3.9-7.5,9.6-9.2,15.2v4c0,1.2-2,1.9-2.6,0.7c-0.4-0.8-0.8-1.7-1.1-2.6c0,0,0,0,0,0
				c-1.6-0.2-1.5-1.7-1.5-2.9c0-0.8,0.1-1.6,0.1-2.4c-0.7-4.1-0.5-8.4,0.7-12.4c-0.1-0.2-0.2-0.6,0-0.9c0.7-1.9,1.4-3.7,2.2-5.5
				c0.5-2.5,1.7-4.9,2.9-7.1c0-0.1,0.1-0.1,0.1-0.2c0.3-0.9,0.8-1.7,1.3-2.4c0.1-0.1,0.1-0.3,0.2-0.4c0.6-1.1,1.4-2.2,2.3-3.2
				c0-0.1,0.1-0.2,0.1-0.3c0.1-0.5,0.4-0.8,0.8-0.9c0.1-0.2,0.3-0.4,0.5-0.5c7.9-13.1,19.7-23.4,34-32.1c5-3,9.8-6.2,15.3-8.5
				c0.6-0.3,1.4-0.5,1.8-1.3c-1.5,0-3.2,1-4.5,1.5c-1.8,0.6-3.5,1.3-5.3,2c-1,1-2.3,1.7-3.6,2.3c-0.4,0.2-0.8,0.3-1.2,0.5
				c0,0.3-0.1,0.6-0.4,0.8c-1.3,0.7-2.7,1.1-4.1,1.6c-0.5,0.2-1.1,0.3-1.6,0.6c-1.4,0.8-2.8,1.6-4.1,2.5c-1.8,1.2-3.6,2.5-5.4,3.7
				c-1.7,1.2-3.4,2.5-5.2,3.6c-1.3,0.8-2.7,1.9-4.3,2.2c-0.1,0-0.1,0.1-0.2,0.1c-1.4,0.5-3,0.7-4.5,0.9c-0.4,0.1-0.7,0.1-1.1,0.2
				c-1.1,0.3-2.3,0.5-3.5,0.6c-1.3,0.2-2.6,0.5-3.9,0.7c-2.6,0.5-5.4,0.9-7.9,0c-1.1-0.4-2.2-0.9-3.2-1.5c-2.8-0.8-5.3-2.3-7-4.9
				c-0.4-0.6-0.9-1.2-0.3-1.9c0.5-0.5,1.2-0.2,1.8-0.1c12,2,21.3-2,28.6-10.9c3.1-3.8,6.3-7.5,8.9-11.5c1.9-2.9,4-5.4,6.3-7.8
				c0.6-1.5,1.6-2.9,2.7-3.9c2.8-2.7,6.1-4.8,9.6-6.5c1-0.5,2.1-0.9,3.2-1.3c0.5-0.4,1.1-0.6,1.8-0.7c0.2-0.1,0.4-0.2,0.7-0.2
				c1-0.5,2.1-0.9,3.2-1.3c0.4-0.2,0.7-0.4,1.1-0.6c1.8-0.8,3.7-1.3,5.6-1.5c2.6-0.7,5.2-1.2,7.8-1.5c3.2-0.5,6.4-0.9,9.6-1.4
				c1.9-0.3,4-0.5,5.9,0c0.3,0,0.7-0.1,1-0.1c0.2,0,0.4,0,0.6,0c1.1-0.2,2.2-0.5,3-1.1c-6.1-2.1-12.2-2-18.4-1.4
				c-0.8,0.1-1.6,0.2-2.5,0.3c-0.1,0.2-0.3,0.3-0.6,0.4c-3.6,0.7-7.3,1.5-10.9,2.6c-2.4,0.8-4.7,1.9-7.2,2.2c-0.8,0.3-1.7,0.7-2.5,1
				c-2.7,1.2-5.5,1.9-8.4,2.3c-0.1,0-0.2,0.1-0.3,0.1c-1.1,0.2-2.2,0.5-3.3,0.6c-1,0.1-2.1,0-3-0.5c-1-0.1-2.1-0.2-3.1-0.3
				c-0.7-0.1-1.6-0.1-1.7-1c0-0.7,0.8-0.9,1.4-1c10.2-2.3,17.5-9,25.5-14.6c6.3-4.4,12.8-8.5,20.2-10.9c7.1-2.3,14.8-2.4,22.3-1.3
				c9.1,1.3,18,3.3,26.5,6.8c0.4,0.2,0.9,0.6,1.9,0c-7.9-6.5-18-8.4-28.1-12.1c1.8-0.4,2.7-0.7,3.6-0.8c10.3-0.8,20.6-2.1,31-2
				c7.2,0,13.5,2,19.3,5.8c4.5,3,8.7,6.3,12.3,10.2c1.1,1.2,2.1,1.4,3.6,0.7c0.9-0.5,1.9-0.8,2.9-1.2c5.1-2.2,10-2.6,14.6,0.1
				c2.7,0.2,5.6,0.8,8.1,1.6c2.6,0.8,6.5,2.1,7.3,4.8c0.1,0.2,0,0.4,0,0.6c0.8,0.3,1.7,0.6,2.5,0.9c-7.6,1.3-15.2-0.8-22.9,0.6
				c2.1,0.7,4.3,1.3,6.4,2.2c8.4,3.4,10.7,10.6,5.6,17.7c-1.2,1.7-1.9-0.2-2.3-1c-2.7-5.1-7.2-8.4-12.3-11.2
				c-6.2-3.4-12.6-5-19.7-3.3c-4.7,1.1-9.4,0.1-13.9-0.9c-0.1,0.1-0.3,0.1-0.4,0.1c-0.6,0-1.3-0.1-1.9-0.2c-0.2,0-0.4,0-0.6,0
				c-2-0.2-3.9-0.9-5.6-1.9c-2.8-0.7-5.7-1.5-8.5-2.2c-0.3-0.1-0.7,0-1.3,0c0,0,0,0,0,0c0.3,0.3,0.5,0.5,0.8,0.7
				c1.1,0.9,2.4,1.7,3.8,2.4c0.3,0.2,0.5,0.5,0.4,0.8c0.7,0.3,1.3,0.7,1.9,1.2c-0.7,1.4-2.3,1.3-3.4,1.7c-6.1,2.2-8.9,5.4-8.4,11.5
				c0.1,1.3,0.1,2.6,0.1,3.9c1-1.3,1.9-2.6,2.8-4c0.9-1.3,2.9-0.4,2.6,1c-0.6,3-2,5.7-3.8,8.2c-0.4,1.3-0.9,2.6-1.7,3.8
				c-1.2,3.6-3,7-4.8,10.3c-0.6,1-1.1,2-1.7,2.9c1.1-0.8,2.2-1.5,3.3-2.2c2.1-1.4,2.8-1.5,3.3,0.1c0.2,0.1,0.4,0.2,0.6,0.3
				c0.3,0.2,0.4,0.6,0.4,0.9v0.7c0,0.1,0.1,0.1,0.1,0.2c0.2,0.2,0.4,0.3,0.4,0.6c0,0.1,0,0.2,0,0.4c0.8,1.9,1,4.1,0.5,6.2
				c0,0.1-0.1,0.2-0.1,0.2c0,0,0,0.1,0.1,0.1c0.1,0.4,0.1,0.8-0.3,1.2c0,0,0,0,0,0c0,0,0,0,0,0c-0.2,0.2-0.4,0.4-0.6,0.6
				c-0.1,0.2-0.2,0.4-0.2,0.6c-0.5,1.9-1.3,3.8-2.6,5.7c-0.3,0.6-0.6,1.1-0.9,1.7c4.6-0.8,8.3-3.8,13.8-4.5
				c-7.3,9.7-9.3,19.8-8.9,30.8c0.5,11,3.4,20.8,13.3,28c-1.1-3.1-2-6.1-2.1-9.2c-0.1-0.5-0.1-1-0.1-1.5c0-0.2,0.1-0.4,0.2-0.6
				c0.2-2.2,0.9-4.4,2.3-6.6c0.3,7.8,6.1,13.1,9.8,19.3c1.9,3.1,3.6,6.1,4.9,9.5c0.2,0.1,0.4,0.1,0.6,0.3c3.6,3.2,6.1,7.4,8.8,11.3
				c2.7,1.8,5.8,3.4,9.4,4.8c-0.8-2-2.1-3.8-3.5-5.5c-3.3-3.2-7.1-6-10.4-9.4c-0.2-0.2-0.3-0.5-0.4-0.8c-0.2,0-0.3,0-0.5,0
				c-1.8,0.2-2.6-2.3-0.8-2.6c0.4-0.1,0.8-0.1,1.2-0.1c-0.1-0.1-0.1-0.1-0.2-0.2c0.1,0,0.3,0.1,0.4,0.1c3.9-0.2,7.5,0.9,10.9,2.7
				c6.7,3.7,12.1,9.4,16.9,15.2c5.5,5.5,10.5,11.5,15.6,17.6c0.2-0.1,0.4-0.3,0.6-0.4c-1.3-5.7-2.5-11.4-3.8-17.4
				c-1.6,0-1.6-2.4,0.2-2.6c4.2-0.5,8.4,0,12.1,2c6.3,3.3,9.9,9.7,12.2,15.8c0.2,0.5,0.4,1,0.6,1.6c0.8,1.3,1.4,2.6,2,4
				C812.2,416.2,811.7,428,810.3,437.1z M721.6,286c0.8,1,0.6,2-0.1,3c-0.1,0.2-0.3,0.4-0.5,0.6c0.1,0.7,0.2,1.5,0,2.3
				c-0.2,1.4-1,2.6-2,3.6c-2,2.1-4.8,3.3-7.4,4.6c-0.9,0.4-2.1-0.1-2.1-1.1c0-2.4,0.7-4.8,1.5-7c-1.3-4.2-2.4-8.5-2.3-13.1
				c0.5-5.4,1-11,1.7-16.6c0.4-3.3,2.7-6.2,5.9-8c1.7-1.2,3.5-2.2,5.6-2.7c0.6-0.2,1.3,0.1,1.6,0.7c0.1,0,0.1,0,0.2,0
				c8.4-0.1,14.6,4.1,19.5,10c2,2.4,1.7,5.2,0.5,7.9c-0.6,1.4-1.6,2.8-2.5,4.1c-2.3,3.5-2.5,3.5-5.8,0.6c-2.8-2.5-5.7-4.7-10.1-3.7
				c-3.4,0.8-5.4,2.6-5.7,5.8C719.5,280,719.4,283.2,721.6,286z M831.5,386.8c-0.1,0.2-0.3,0.3-0.6,0.4c-0.2,0.1-0.5,0-0.7-0.1
				c-0.5-0.3-0.8-0.7-1-1.2c0,0,0,0,0,0c-0.3,0.1-0.6,0-0.9-0.2c-0.9-0.7,0.3-1.1,0.5-1.7c0-0.1,0-0.1,0.1-0.2
				c-0.3-0.6-0.6-1.1-0.8-1.7c-0.4,0.8-0.5,1.7-0.8,2.5c-0.5,1.7-1.1,3.3-1.8,4.9c0,0.3-0.1,0.6-0.1,0.8c-0.6,3.6-2.7,9.1-7.7,8.1
				c-0.5-0.1-0.8-0.7-0.6-1.2c0,0-0.1-0.1-0.1-0.1c-0.3-0.4-0.4-0.9,0-1.3c0,0,0,0,0,0c0-0.2,0.1-0.4,0.3-0.5
				c0.2-0.2,0.4-0.3,0.6-0.4c0.2-0.4,0.5-0.7,0.6-1c0.8-2,1.6-4,1.7-6.4c-1.9,0.9-3.9,1.3-6,1.3c-0.3,0.1-0.6,0.1-0.9,0.2
				c0-0.1,0.1-0.1,0.1-0.2c-7.7-0.5-15.4-6.8-18.5-13.3c-0.5-0.5-0.9-1-0.7-1.7c0.2-0.6,0.7-0.7,1.2-0.7c0.4-0.1,0.9-0.1,1.3,0.1
				c1.5,0.1,3,0.1,4.5,0c3.3-0.5,6.3-1.9,9.6-2.4c0.2,0,0.4,0,0.5,0c3-1.2,5.8-2.9,8.6-4.9c1.2-0.8,2.4-1.6,3.7-2.2
				c1.6-0.8,2.8-0.4,4,1.1c4.1,5.3,4.8,11.3,4.6,17.5c0,0.4-0.1,0.7-0.2,1c0.1,0.1,0.2,0.3,0.2,0.5
				C832.2,384.8,832.1,385.9,831.5,386.8z M845.4,329c0.2,1.1-0.1,2.3-0.8,3.3c-1.4,2.1-3.9,3.3-6.6,3.5c-3.8,0.3-7.3-1.2-10.9-2.5
				c-2-0.3-3.9-0.8-5.8-1.8c-0.5-0.2-0.9-0.5-1.7,0.1c1.2,2.5,3.3,4.1,6,5.1c3,1.2,6.6,1.6,7.1,5.7c0.1,1,1.4,2,2.3,0
				c0.2-0.6,0.5-1.2,1.3-1.1c0.6,0.1,0.8,0.6,0.7,1.1c-1.2,6.5-0.2,13.6-4.8,19.4c-0.5,0.6-0.7,1.7-1.7,1.4
				c-1.3-0.3-0.9-1.4-0.8-2.3c0-0.7,0.3-1.4,0.4-2c0.1-0.6,0.1-1.1,0.2-2.2c-4.1,2.7-7.8,5.3-11.6,7.7c-3.2,2-6.6,3.9-10.6,4.7
				c-8.7,1.8-16.5-5-15-13.3c0.6-3.4,1.5-6.8,2.5-10.1c1.2-4.3-0.5-7.5-3.9-10.2c-0.4-0.3-0.8-0.5-1.1-0.7c-0.7,0.4-1.3,0.8-2,1.2
				c-0.1,0.2-0.1,0.4-0.1,0.6c-0.1,1-0.2,1.9-0.2,2.9c0.7,1.8,2,3.4,2.2,5.4c0.3,3.7-2.6,5.8-5.1,8.2c-3.2,3.1-5.5,7.4-6.2,11.8
				c0,4.9,1.6,9.6,3.9,14.3c0.4,0.9,1,1.7,1.5,2.6c0.1,0.3,0.2,0.6,0.5,1.5c-9.3-4.5-16.3-10.8-22.8-17.5
				c-6.6-6.7-9.5-15.7-15.7-22.8c2.7,10.7,7.7,20.4,13.5,30c-13.1-5.7-23.4-14-28.6-27.2c-1.3,3.7-1.6,7.2,0.1,11.1
				c-2.2-1.5-3.9-4.7-5.5-10.7c-0.3-0.1-0.5-0.3-0.6-0.5c-0.7-1.5-1.2-3.1-1.6-4.7c-0.2-0.2-0.3-0.4-0.3-0.7v-0.4
				c-0.7-3.3-1.2-6.7-2.3-10c-2.3,3-3.9,6.2-4.9,9.7c-0.3,0.9-0.4,2.4-1.6,2.3c-1.6-0.2-1-1.8-0.9-2.7c0.3-17.9,5.1-34.3,16.6-48.6
				c-1.2-1.7-2.2-3.6-2.6-5.6c-0.5-2.2-0.1-4.6,2.2-5.8c1.4-0.7,3-0.8,4.5-0.7c1.5,0.1,2.9,0.5,4,1.5c0.1,0.1,0.2,0.2,0.3,0.3
				c2.2,0.6,3.7,0.2,5-1.8c3.6-5.3,6.8-10.7,5.5-17.4c-0.5-2.4-1.2-4.3-4.1-5c-1.6-0.4-3.3-1.1-5.1-2.9c8.7-0.3,16.4,0.9,22.6,5.8
				c3.2,2.5,6.4,5,9.5,7.7c0.5-0.7,1.8-0.9,2.4,0c3,4,6.5,7.5,10.2,10.8c3.4,3,7.2,5.6,10.7,8.5c2.1,1.8,4.2,3.9,4.2,6.7
				c0,2.1-1,4-2.2,5.8l0,0c7.3,4.7,15.4,8.4,23.1,12.4c1.6,0.8,3.2,1.7,4.7,2.6c5.8,2.8,11.3,6.1,16.3,10c0.6,0.2,1.1,0.4,1.6,0.7
				c1.2,0.9,2,2.1,2.5,3.4C846.2,328.1,845.9,328.7,845.4,329z"/>
			
				<linearGradient id="SVGID_00000158741236573528330980000004297494020205926575_" gradientUnits="userSpaceOnUse" x1="788.2343" y1="390.6208" x2="796.1803" y2="390.6208">
				<stop  offset="0" style="stop-color:#FFFFFF"/>
				<stop  offset="1" style="stop-color:#000000"/>
			</linearGradient>
			<path style="fill:url(#SVGID_00000158741236573528330980000004297494020205926575_);" d="M788.2,387.9c2.9,1.4,5.6,3.2,7.9,5.4
				C794,390.7,791.3,388.9,788.2,387.9z"/>
			
				<linearGradient id="SVGID_00000129909348181219806180000004085387125830116006_" gradientUnits="userSpaceOnUse" x1="766.0925" y1="302.4754" x2="784.8517" y2="302.4754">
				<stop  offset="0" style="stop-color:#FFFFFF"/>
				<stop  offset="1" style="stop-color:#000000"/>
			</linearGradient>
			<path style="fill:url(#SVGID_00000129909348181219806180000004085387125830116006_);" d="M784.9,306.5c-0.2-0.2-0.5-0.4-0.8-0.6
				c-1.3-0.3-2.5-0.7-3.2-1.7c-0.2-0.3-0.3-0.5-0.5-0.8c-1-0.9-1.5-2-1.2-3.7c-0.1-0.4-0.2-0.8-0.3-1.2c-2.3,0.5-4.6,1.2-6.9,1.7
				c-0.9,0.4-1.8,0.7-2.8,0.8c-1,0.1-2.1,0.1-3.1,0.1c0.7,0.4,1.5,0.8,2.2,1.2C774.1,302,779.3,305.1,784.9,306.5z"/>
		</g>
		
			<linearGradient id="SVGID_00000049180364211338149830000011056542161883918526_" gradientUnits="userSpaceOnUse" x1="713.2208" y1="200.6584" x2="711.4971" y2="454.2509">
			<stop  offset="0" style="stop-color:#FFFFFF"/>
			<stop  offset="1" style="stop-color:#000000"/>
		</linearGradient>
		<path style="fill:url(#SVGID_00000049180364211338149830000011056542161883918526_);" d="M849.2,323.5c-1-2.1-2.3-4-3.8-5.7
			c-3.3-2.4-6.8-4.6-10.5-6.6c-4.5-2.5-9.2-4.8-13.5-7.5c-4.7-2.9-9.2-6.2-14.4-8.2c-1.1-0.4-1.1-1.8-0.4-2.4c0-0.1,0-0.2,0-0.3
			c-0.1-0.2-0.2-0.4-0.2-0.6c0.1-2,0.5-4.1,0.6-6.1c0-0.2-0.1-0.4-0.1-0.6c0.2-0.2,0.3-0.5,0.2-0.8c-1.2-2.9-3.6-5.3-6.6-6.5
			c0-0.1-0.1-0.2-0.1-0.3c-2.5-1.4-5.2-2.7-7.5-4.4c-3.4-2.4-5.4-5.6-6.5-9.5c0.6-0.4,1.1-0.8,1.6-1.4c1.1-1.4,1.3-3.3,1.2-5.1
			c-0.2-3-1.1-5.9-2.2-8.7c4.8-0.4,9.4-2.2,13.2-5.3c2.3-1.8,0.4-5.7-2.4-5.6c-5.2,0.2-9.9-2-14.6-4.2c-4.1-2.7-8.4-5.3-13.3-6.5
			c-2.4-0.6-4.9-0.7-7.4-0.4c-2.7,0.4-5.3,1.7-8.1,1.5c-4-7-10.1-11.6-18-14.1c-7.9-2.5-16.4-2.6-24.6-1.6c-1.3,0.2-2.6,0.3-3.9,0.5
			c-3.3,0-6.7,0.2-10,0.6c-5.2,0.6-10.3,2.3-15.6,1.7c-0.8-0.1-1,0.7-0.7,1.3c0,0.1,0,0.1-0.1,0.2c-0.4,0.7-1.2,0.8-1.9,0.5
			c-0.3-0.1-0.5-0.3-0.8-0.4c0,0-0.1,0-0.1-0.1c0,0,0,0-0.1,0c-0.1,0-0.2-0.1-0.3-0.1c-0.4-0.1-0.8-0.2-1.2-0.3
			c-0.8-0.2-1.7-0.3-2.5-0.5c-0.1,0-0.2,0.1-0.3,0.1c-2-0.9-4.1-1.3-6.3-1.2c-1.1,0-1.6,1.5-0.6,2c1.5,0.8,3,1.6,4.5,2.5
			c-0.2,0.1-0.3,0.2-0.4,0.4c-0.1,0-0.2,0-0.2,0c-12.4,3.8-23.7,10.4-32.9,19.3c-3.7,2.6-7.5,5-11.5,7.1c-2.2,1.1-4.5,2.1-6.9,2.9
			c0,0.2-0.2,0.4-0.4,0.5c-2.9,1.4-6.2,1.8-9.3,2.5c-2.7,0.6-5.3,1.6-8,1.9c0.1,0.4,0.6,0.8,1.1,0.8c0.6-0.1,1.2-0.1,1.9-0.1
			c0.3,0.1,0.6,0.2,0.9,0.3c1.2,0.1,2.4,0.2,3.6,0.5c1.4,0.3,2.7,0.9,4.1,1.4c2.4,0.9,4.9,1.7,7,3.1c0.7,0.5,1.4,1.1,1.4,2
			c0,0.6-0.3,1.2-0.7,1.7c-0.2,0.5-0.4,0.9-0.6,1.3c-0.6,1.4-1.1,2.8-1.9,4.2c-1.6,5.7-4.7,11.1-8.6,15.6c-5.2,6-12.2,10.7-20.2,12
			c0,0,0,0-0.1,0c-2,0.4-4,0.8-6,0.7c-0.1,0-0.1,0-0.2-0.1c0,0,0,0,0,0c-3.1,0.3-5.9-0.5-8.7-1.7c1.1,2.9,2.7,5.6,4.9,7.9
			c2.7,2.8,6,4.9,9.6,6.6c1.2,0.6,0.7,2-0.3,2.3c0.1,0.1,0.2,0.1,0.3,0.2c0.1,0,0.3,0,0.4,0c0.1-0.1,0.3-0.1,0.5-0.1
			c1.4,0.1,2.7-0.7,4-0.9c1.6-0.3,3.3-0.5,5-0.5c0.3,0,0.5,0.1,0.6,0.2c0.6,0,1.2,0.5,0.9,1.1c-0.5,1.4-1.6,2.1-2.7,3.1
			c-1.3,1.1-2.3,2.5-3.3,3.9c-2.1,3-3.4,6.3-4.7,9.7c-1.3,3.5-2.6,7-3.5,10.6c-0.8,3-1.4,6.1-1.7,9.2c0.6,0.2,1.1,0.8,1,1.6
			c-0.3,2-0.6,4.1-0.5,6.2c0.1,1,0.1,1.9,0.2,2.8c0.3,1.9,0.9,3.7,2,5.4c0.2,0.1,0.4,0.4,0.5,0.7c0.4,0.5,0.8,1,1.3,1.5
			c0.8,0.7,0.3,1.7-0.4,2.1c2.3,5.4,3.9,11.1,5.3,16.9c2.6,10.9,6.9,22,7,33.3c0,2.3-0.2,4.7-0.7,6.9c7.3-0.9,14-4.3,19-9.5
			c0,0,0.1,0,0.1,0c0.1,0,0.2,0,0.3,0.1c0.5-0.7,1.7-1,2.3-0.1c0.5-0.6,1.6-0.8,2.2,0.1c1.8,2.6,3.5,5.2,5.2,7.7
			c1.8,2.3,3.7,4.5,5.4,6.8c2.6,3.4,5.9,7.5,7,11.8c2.8,4.1,5.6,8.2,8.2,12.4c3.6,5.8,7.1,11.6,10.6,17.5c1.4,2.3,2.7,4.6,4.1,6.9
			c0.9,0.2,1.8,0.1,2.5-0.4c8.9-6.2,15.7-15,19.2-25c0.7,1.4,1.5,2.8,2.2,4.1c0.8,1.5,3.2,2.1,4.7,1.2c5.7-3.4,11.1-7.2,16.4-11.3
			c13.5,11.7,29.7,27.5,23.2,46.4c-0.1,0.4-0.2,0.8-0.1,1.2c-0.6,1.1-1.1,2.3-1.4,3.6c-0.1,0.4,0,0.6,0.2,0.9
			c-0.5,1.2-1,2.5-1.3,3.8c-0.3,0.9,0.9,1.4,1.5,0.9c2.4-2,4.9-4.1,7.3-6.1c0.2-0.1,0.2-0.3,0.3-0.6c4.9-3.3,9-7.8,12.1-12.8
			c0.7-1.1,1.3-2.2,1.8-3.4c1.4-1.8,2.8-3.8,4-5.7c1.9,3.3,2.5,7.1,2.7,10.9c0.1,2.8,0.2,5.6,0.2,8.4c-0.6,2.7-1.3,5.4-2.1,8
			c-0.8,2.4,1.8,4.7,4.2,4c8.5-2.4,16.1-6.9,22.6-12.8c6.8-6.2,11.8-13.8,16.6-21.5c9.5-15.3,20-32.5,17.7-51.1
			c-1-7.7-3.8-15-7.2-22c-0.7-0.2-0.8-1.1-0.3-1.5c0,0,0,0,0,0c0-0.2-0.1-0.4-0.1-0.6c0-0.5,0.4-0.8,0.8-0.8
			c0.2-0.2,0.4-0.5,0.7-0.5c0.4-0.1,0.9,0,1,0.4c0.4,0.9,1,1.7,1.6,2.4c1.2,1.3,2.6,2.6,4.3,3c0,0,0,0,0,0c0,0,0.1,0,0.1,0
			c0.1,0,0.2,0,0.3,0c0,0,0.1,0,0.2,0c0.1,0,0.1,0,0.2,0c0.2-0.1,0.4-0.2,0.7-0.4c0.2-0.2,0.4-0.5,0.5-0.9c0-0.1,0-0.3-0.1-0.4
			c0.1-0.5,0.3-0.9,0.4-1.4c0-0.1,0-0.2,0-0.3c0,0,0.1,0,0.1-0.1c0.5-1.5,1.4-2.8,3-3.7c0.9-0.5,1.7,0,1.9,0.8
			c0.1-0.1,0.3-0.2,0.4-0.3c-0.4,1.3-0.8,2.6-1.3,3.9c-0.3,1,1.1,1.9,1.9,1.1c0.3-0.4,0.6-0.8,0.9-1.2c1-2,1.4-4,0-6.1
			c-0.9-1.3,1.1-2.7,2.1-1.6c0.6,0.6,1.4,1.5,2.4,1.7c0.4,0.1,0.7,0,1-0.2c1.2-0.9,1.7-3,2-4.3c0.4-1.7,0.7-3.4,0.8-5.1
			c0-1,0.1-2,0.2-3.1c0-0.8,0-1.5,0-2.2c0-0.2,0-0.4,0.1-0.6c0.5-8,1.4-15.9,2.5-23.8c0-2.1,0-4.2,0.1-6.3c0.2-2.8,0.4-5.7,1.3-8.4
			c0.6-1.9,1.5-4,3.5-4.9c0,0,0,0,0,0c0.1-0.1,0.2-0.3,0.4-0.4c0.6-0.4,1.2-0.9,1.7-1.4C849.6,330.4,850.2,327.1,849.2,323.5z
			 M686.9,416.9c-0.2,2.2-0.4,4.4-0.8,6.6c0.3-2.4,0.5-4.7,0.5-7.1C686.8,416.5,686.8,416.6,686.9,416.9
			C686.9,416.8,686.9,416.8,686.9,416.9z M811.2,433.9c-0.1,0.4-0.4,0.7-0.8,0.9c0,1.5-0.1,2.9-0.2,4.4c-2.6-7.7-6.8-14.8-12.2-20.9
			c-0.2-0.2-0.4-0.3-0.6-0.3c-0.8-1-2.7,0-1.9,1.2c5.3,7.5,7.5,15.5,7.6,23.6c-3.2,17.1-13.8,31.8-24.5,45.4c-1.6,2-3.1,4-4.8,5.9
			c-1.1,1.3-2.2,2.4-3.6,3.4c1.8-15.1,0.2-30.6-4.6-45.1c-0.1-0.4-0.5-0.6-0.8-0.6c-2-5.9-4.7-11.8-8.9-16.4c-0.2,0.1-0.5,0.1-0.8,0
			c-0.5-0.1-1.1-0.3-1.6-0.4l0.3,0.9c0,1.2,0,2.4,0,3.5c0,0.1,0,0.3,0.1,0.4c-0.1,0.3-0.2,0.7-0.2,1.1c1.4,15.7-2.8,31.4-11.8,44.3
			c0-0.3-0.1-0.6-0.1-0.9c0.2-0.2,0.4-0.4,0.4-0.8c0-0.4,0-0.8,0-1.2c2.7-10.5-4-20.6-11.3-27.9c-7.9-7.9-17.9-14.7-21.2-25.7
			c-0.2-0.6-0.7-0.8-1.1-0.8c0.1,1.8,0.3,3.7,0.3,5.6c0,0.3-0.1,0.5-0.3,0.7c-0.1,1.1-0.3,2.2-0.5,3.2c-1,3.8-3.1,8-6.2,10.7
			c-1.2,1-2.8,2-4.4,1.9c-1.7-0.1-3-1.3-3.8-2.6c-0.6-0.1-1-0.5-1-1.2c0-6.1,0-12.3-1.1-18.4c-1-5.7-3-11.1-5.8-16.2
			c-0.6-0.1-1.4,0.2-1.3,1c0.2,9.8-1.5,19.6-4.8,28.8c-1.7,8.1-4,16.1-9.7,22.5c-1.1,1.2-2.8-0.3-2.1-1.6c0.6-1.1,1.2-2.2,1.8-3.4
			c-1.4,1.3-2.4,2.9-3.1,4.7c-2.9-5.9-6.2-11.6-10.1-17c-4.1-5.7-9.1-10.8-13.2-16.5c-0.8-1-1.5-2.1-2.2-3.2
			c-5.5-6.2-9-14.1-8.2-22.4c0-0.1,0.1-0.2,0.1-0.3c-0.6-3.4-0.9-6.9-1.1-10.4c0.4-5,0.8-10.1,1.2-15.1c0.1-1.4-2.2-1.4-2.3,0
			c0,0.1,0,0.1,0,0.2c-0.2,0.2-0.4,0.4-0.5,0.8c-0.6,4.6-0.9,9.3-0.7,13.9c-0.2,2-0.3,4-0.5,6c-0.1,1.4-0.2,2.8-0.3,4.1
			c-1.3-2.8-2.5-5.7-3.7-8.5c-0.5-0.6-1-1.1-1.5-1.7c-0.4,0-0.8,0.1-1,0.5c0.1,3.8-0.5,7.6-2.1,11.1c-2,4.5-5.5,8.1-9.6,10.9
			c-0.9,0.6-2-0.2-2-1.1c-0.2-4-0.4-8.1-1.3-12c-0.8-3.8-2.4-7.2-4.1-10.7c-3.6-7.6-2.8-15.8-2.8-24c-0.4-4.5,0-9.1,1.5-13.3
			c1.1-3.2,2.9-6,5.2-8.4c0.1-0.2,0.2-0.3,0.3-0.5c0.8-1.1-0.9-2.1-1.8-1.3c-0.2,0.1-0.3,0.3-0.4,0.4c0.2,0.4,0.1,0.9-0.3,1.3
			c-4.5,3.9-7.2,9.5-8.8,15v4c0,1.2-2,1.9-2.5,0.7c-2.8-5.9-3.6-13.5-1.7-20.1c-0.1-0.2-0.2-0.5,0-0.9c0.6-1.9,1.3-3.7,2.1-5.5
			c0.5-2.5,1.6-4.9,2.8-7.1c0-0.1,0.1-0.1,0.1-0.2c0.3-0.8,0.7-1.6,1.3-2.4c0.1-0.1,0.1-0.3,0.2-0.4c0.6-1.1,1.3-2.2,2.2-3.1
			c0-0.1,0-0.2,0.1-0.3c0.1-0.5,0.4-0.8,0.8-0.9c0.2-0.3,0.5-0.6,0.7-0.8c1.5-2.1,3-4.2,4.5-6.2c7.3-9.4,16.4-17.6,26.6-23.9
			c5.9-3.7,12.1-6.7,18.6-9.2c0.9-0.3,1-1.4,0.4-1.9h-0.8c-0.1,0-0.2,0-0.3-0.1c0,0,0,0-0.1,0c-0.2,0-0.5,0.1-0.8,0.1
			c-0.5,0.1-1,0.3-1.5,0.5c-0.7,0.3-1.5,0.7-2.1,0.9c-1.7,0.6-3.4,1.3-5.1,2c-1,1-2.2,1.7-3.5,2.3c-0.4,0.2-0.8,0.3-1.1,0.5
			c0,0.3-0.1,0.6-0.4,0.8c-1.2,0.7-2.6,1.1-3.9,1.6c-0.5,0.2-1,0.3-1.5,0.6c-1.3,0.8-2.7,1.6-4,2.5c-1.8,1.2-3.5,2.4-5.2,3.7
			c-1.6,1.2-3.2,2.5-5,3.6c-1.3,0.8-2.6,1.9-4.1,2.2c-0.1,0-0.1,0.1-0.2,0.1c-1.4,0.5-2.9,0.7-4.3,0.9c-2.7,0.5-5.4,1.1-8.1,1.6
			c-2.5,0.5-5.2,0.9-7.6,0c-2.4-0.8-4.6-2.4-6.8-3.8c-0.1,0-0.2,0-0.3-0.1c-0.1,0-0.1-0.1-0.2-0.1l0,0c0,0-0.1-0.1-0.1-0.1
			c-0.1-0.1-0.2-0.2-0.3-0.2c0,0,0,0,0,0c-0.1-0.1-0.2-0.2-0.3-0.3c-0.3-0.3-0.6-0.6-0.9-0.9c-0.3-0.4-0.4-0.8-0.1-1.2
			c0.3-0.3,0.8-0.5,1.2-0.2c0.3,0,0.7,0,1,0.1c1.4-0.1,2.7,0,4.1,0c0.2,0,0.3,0,0.4,0.1c0.1,0,0.2,0,0.3,0c0.4-0.1,0.9-0.1,1.3-0.1
			c0.3,0,0.7-0.1,1-0.1c5.5-1.1,10.7-3.5,15.2-6.9c8.3-6.2,13.5-15,18-24.1c0.2-0.7,0.6-1.4,1-2c0-0.1,0.1-0.1,0.1-0.2
			c0,0,0.1-0.1,0.1-0.1c0.5-0.7,1-1.3,1.5-1.9c2.6-2.7,5.8-4.8,9.2-6.4c0.8-0.4,1.7-0.8,2.5-1.1c0.2-0.1,0.4-0.2,0.6-0.3
			c0.3-0.2,0.7-0.4,1.1-0.5c1.7-0.8,3.4-1.5,5.2-2.1c0,0,0,0,0.1,0c1.5-0.7,3.1-1.2,4.8-1.4c5.2-1.4,10.6-2.3,16-2.7
			c0.5-0.1,0.9-0.1,1.4-0.2c1.6-0.3,3.4-0.5,5.1-0.1c0.9,0,1.7-0.1,2.6-0.1c1.2-0.3,2.2-0.7,2.9-1.5c-0.1-0.3-0.3-0.6-0.7-0.7
			c-6.8-1.7-13.3-1.3-19.8,0.1c-0.1,0.2-0.3,0.3-0.6,0.4c-3.1,0.6-6.3,1.3-9.3,2.3c-0.5,0.2-1,0.3-1.6,0.5c-2,0.7-3.9,1.6-6,2
			c-3.6,1.2-7.1,2.3-10.8,3.2c-0.1,0.1-0.3,0.3-0.4,0.3c-1.1,0.2-2.1,0.4-3.1,0.6c-0.1,0-0.3,0-0.4,0c-0.2,0-0.4,0.1-0.6,0.1
			c-0.1-0.1-0.3-0.1-0.4-0.2c-0.6-0.1-1.2-0.3-1.7-0.6c-0.1,0-0.1-0.1-0.2-0.2c-0.8-0.3-1.5-0.6-2.3-1c15.4-5.2,27.4-18,42-25.2
			c1.5-0.8,3.1-1.4,4.7-2c0.2,0.1,0.3,0.1,0.5,0c7-1.7,14.3-1,21.3,0.4c7,1.3,13.9,3.4,20.5,6c1,0.4,3,1.6,3.7,0.2
			c0.4-0.8-0.6-1.7-1.4-1.4c-0.1-0.1-0.2-0.2-0.4-0.3c-6.1-3.4-12.4-6.5-18.8-9.2c-0.5-0.2-1-0.4-1.5-0.6
			c10.2-1.2,20.4-1.9,30.7-2.2c2.7-0.1,5.6-0.3,8.3,0.4c0.5,0.1,0.9,0.3,1.3,0.5c0,0,0,0,0.1,0c0,0,0.1,0.1,0.1,0.1
			c0,0,0.1,0.1,0.1,0.1s0.1,0.1,0.1,0.1c0,0,0.1,0.1,0.1,0.1c0.1,0.1,0.2,0.2,0.3,0.3c0.2,0.2,0.6,0.3,0.8,0.2
			c1.3,0.8,2.5,1.7,3.6,2.7c4.4,3.9,8.8,7.7,13.2,11.6c0.2,0.2,0.4,0.2,0.6,0.3c0.7,0.5,1.8,0,1.8-0.8c0.3,0.1,0.7,0.2,1,0.2
			c0.7,0.1,1.3,0,2-0.1c0.1-0.2,0.3-0.4,0.5-0.5c1.4-0.4,2.8-0.7,4.3-0.8c0.2-0.1,0.5-0.1,0.7-0.2c2.4-0.6,4.7-0.5,7,0.1
			c0.1-0.1,0.3-0.2,0.6-0.2c3,0,6.1,0.8,8.9,1.7c2.5,0.8,6.3,2.1,7,4.8c0.1,0.3,0,0.5-0.1,0.6c0.1,0.1,0.2,0.1,0.4,0.2
			c-0.2,0-0.3,0-0.5,0c-0.2,0.2-0.6,0.3-0.9,0.3c-0.3-0.1-0.6-0.1-0.9-0.2c-2.7-0.1-5.5-0.7-7.9-2c-0.4-0.2-0.8-0.3-1.2-0.4
			c-0.3-0.2-0.7-0.3-1.2-0.1c-2.9,1.2-6.1,2.1-9.2,2.5c-0.4,0.1-0.7,0.4-0.8,0.8c-0.2,0.2-0.4,0.4-0.4,0.7c-0.1,0.5,0.3,1.1,0.8,1.2
			c1.3,0.3,2.6,0.3,3.9,0.1c1.7,0.2,3.4,0.5,5,1.1c4.1,2.7,6.5,7,7.3,11.6c-0.7,0.7-1.1,1.7-1.1,2.7c-0.5,0.4-0.9,0.9-1.3,1.4
			c-1.2-1.3-2.4-2.4-3.7-3.6c-1.3-1.8-3-3.3-4.9-4.6c-2.2-1.6-4.6-3.1-7.1-4.2c-4.7-2.2-9.6-2.4-14.6-2.1c-1.4-0.1-2.9-0.2-4.3-0.3
			c-3.8-0.1-7.7-0.1-11.5-0.3c-0.1,0.2-0.4,0.3-0.7,0.3c-0.6,0-1.2-0.1-1.8-0.2c-0.2,0-0.4,0-0.5,0c-2.2-0.2-4.2-1.1-6.1-2.2
			c0,0,0,0,0,0c-0.8-0.2-1.5-0.4-2.2-0.7c-0.1,0-0.1,0-0.2-0.1c0,0,0,0-0.1,0c-1.9-1.3-3.9-2.5-6-3.6c-0.6-0.3-1.2,0.1-1.3,0.6
			c0.2,0.5,0.5,1,0.7,1.4c0.1,0.2,0.3,0.3,0.5,0.5c0.2,0.3,0.5,0.5,0.8,0.7c1,0.9,2.3,1.7,3.6,2.4c0.7,0.4,0.5,1.4-0.3,1.6
			c0.2,0.1,0.4,0.2,0.6,0.3c-2.8,0.5-5.3,2.2-7.1,4.4c-3.1,3.9-3.3,9.1-3.4,13.9c0,0.1,0,0.1,0,0.2c1.3-1.8,2.6-3.7,3.8-5.5
			c0.9-1.3,2.8-0.4,2.5,1c-0.6,3-1.9,5.7-3.7,8.1c-0.4,1.3-0.9,2.6-1.6,3.8c-1.1,3.6-2.9,7-4.7,10.2c-1.4,2.5-2.8,4.9-4.3,7.4
			c2.7-2.4,5.3-4.8,8-7.2c0.1,0.2,0.1,0.4,0.1,0.5c0.1,0,0.3-0.1,0.5-0.1c0.3,0,0.7,0.2,1,0.4c0.2,0.2,0.4,0.6,0.4,0.9v0.7
			c0,0.1,0.1,0.1,0.1,0.2c0.2,0.2,0.4,0.3,0.4,0.6c0,0.1,0,0.2,0,0.4c0.8,1.9,0.9,4.1,0.5,6.1c0,0.1-0.1,0.1-0.1,0.2c0,0,0,0,0,0.1
			c0.2,0.4,0.1,0.9-0.2,1.3c0,0,0,0,0,0c0,0,0,0,0,0c-0.2,0.2-0.4,0.4-0.6,0.6c-1.3,3.7-3.1,7.3-5.2,10.6c0.1,0,0.3,0,0.5-0.1
			c1.7-0.6,3.3-1.3,4.9-2c2-0.4,4-0.9,6-1.3c-4,9.3-6,19.5-5.5,29.6c0.2,5.2,0.8,10.8,3,15.6c3.2,3.5,6.5,6.9,9.4,10.6
			c0.2,0.2,0.3,0.5,0.3,0.7c0,0,0,0,0,0c0.7,0.8,1.8,0.1,1.9-0.8c0-0.1,0-0.2,0-0.4c-0.3-0.1-0.6-0.4-0.7-0.8
			c-1.2-3.6-2.7-7.1-2.8-10.9c0-0.7,0.5-1.2,1.2-1.3c0.2,0,0.5,0,0.7,0.1c-0.1-0.5-0.1-1-0.2-1.5c0,0,0,0,0,0
			c0.2,0.6,0.4,1.2,0.7,1.8c0.1,0.2,0.3,0.3,0.4,0.5c0.2,0.5,0.4,1.1,0.6,1.6c1.8,3.5,4.2,6.8,6.3,10c2.2,3.3,4.4,6.6,6.7,9.9
			c0,0.1,0.1,0.2,0.2,0.3c0.2,0.1,0.4,0.1,0.6,0.3c3.9,3.6,6.5,8.3,9.4,12.7c1.9,2.9,4.1,5.7,6.8,7.7c0.1,0.1,0.2,0.2,0.3,0.3
			c0.6,0.4,1.6,0,1.7-0.7c0-0.1,0-0.2,0-0.4c-0.1-1.5-0.5-3-1.2-4.4c-0.1-0.2-0.3-0.4-0.4-0.6c0-0.1-0.1-0.2-0.1-0.4
			c-0.3-0.5-0.5-0.9-0.8-1.4c-0.5-0.6-1-1.1-1.5-1.7c-0.3-0.4-0.7-0.8-1.1-1.2c-0.4-0.5-0.8-0.9-1.2-1.4c-2.7-2.4-5.5-4.7-8-7.3
			c-0.2-0.2-0.3-0.5-0.4-0.8c-0.2,0-0.3,0-0.5,0c-1.7,0.2-2.5-2.3-0.7-2.5c0.4-0.1,0.8-0.1,1.2-0.1c0,0,0,0,0,0c0,0,0,0,0.1,0
			c3.7-0.2,7.3,0.8,10.5,2.7c7.8,4.4,13.6,11.7,19,18.5c3.2,4.1,6.3,8.6,9.6,12.8c0.4,0.5,0.9,1,1.3,1.5c0.8,0.9,2.1-0.1,1.9-1.1
			c-0.6-2.7-1.2-5.4-1.8-8.1c-0.3-1.6-0.6-3.3-1.1-4.8c-0.3-1.3-0.6-2.6-0.9-3.9c-1.5-0.1-1.4-2.4,0.2-2.6c4-0.5,8.1,0,11.6,2
			c6,3.3,9.5,9.6,11.7,15.6c0.2,0.5,0.4,1,0.5,1.6c0.8,1.3,1.4,2.6,1.9,4C813,413.2,812.5,424.8,811.2,433.9z M748.2,266.1
			C748.2,266.1,748.2,266.1,748.2,266.1c-1.1,2.7-2.7,6.2-5.3,8c-0.7-0.6-1.4-1.3-2.1-1.9c-2.9-2.2-6.8-3.6-10.5-3.3
			c-8.5,0.9-7.1,11-4.6,16.9c-0.1,0.1-0.3,0.3-0.4,0.4c0.4,1.1,0.5,2.2,0.3,3.3c-0.2,1.4-1,2.6-1.9,3.6c-1.9,2-4.6,3.3-7.1,4.5
			c-0.9,0.4-2.1-0.1-2-1.1c0-2.7,0.8-5.2,1.7-7.7c-1-2.9-1.7-5.8-2.2-8.8c0-1.1,0-2.2,0-3.3c0.2-5.8,1-11.7,3.3-17
			c0.1-2,0.9-3.9,2.2-5.4c-0.2-0.6,0.1-1.2,0.6-1.5c1.6-1.2,3.3-2.2,5.1-2.9c0-0.1,0-0.2,0-0.2c0.2,0,0.3,0.1,0.5,0.1
			c0.2-0.1,0.4-0.2,0.7-0.2c1.4,0.9,2.9,1.7,4.5,2.4c3.9,1.8,7.9,3.1,12.1,4c2.3,1.8,4.5,4.2,4.5,7c0,0.7,0.5,1,1,1
			c-0.1,0.4-0.2,0.8-0.3,1.2C747.9,265.6,748,265.9,748.2,266.1z M831.5,384c-0.1,0.2-0.3,0.3-0.5,0.4c-0.2,0.1-0.5,0-0.7-0.1
			c-0.5-0.3-0.8-0.7-1-1.2c-0.1-0.3-0.1-0.6-0.2-1c0-0.2-0.1-0.3-0.1-0.5c0-0.2,0-0.3,0-0.5c-0.4-0.7-0.7-1.4-0.9-2.2
			c-0.4,0.1-0.7,0.3-0.9,0.7c-0.5,1.5-0.9,2.9-1.4,4.4c0,0.1,0,0.1,0,0.2c0,1-0.1,2.1-0.3,3.1c-0.6,3.6-2.6,9-7.4,8
			c-0.5-0.1-0.8-0.7-0.6-1.2c0,0-0.1-0.1-0.1-0.1c-0.3-0.4-0.4-0.9,0-1.2c0,0,0,0,0,0c0-0.2,0.1-0.3,0.2-0.5
			c0.3-0.3,0.6-0.5,0.9-0.7c0.6-1.7,1.2-3.4,1.6-5.2c0.1-0.6,0-1.2-0.3-1.7c-9.3,4-20.6-4.6-24-13.1c-0.6-1.6,1.9-2.2,2.6-0.8
			c0.3-0.3,0.8-0.4,1.2-0.3c0.1,0,0.2-0.1,0.3-0.1c3.7,0,7-1.7,10.6-2.4c0.2-0.1,0.5-0.2,0.7-0.2c0.8-0.2,1.7-0.4,2.5-0.6
			c4.5-1.5,8.3-4.2,12.1-7c3.2,3.3,5.3,7.5,5.8,12.1c0,0.3,0.2,0.5,0.3,0.7c-0.2,2.4-0.3,4.7-0.5,7.1c0.3,0.1,0.5,0.5,0.5,0.8
			C832.2,382,832.2,383.1,831.5,384z M844.9,326.6c0.2,1.1-0.1,2.3-0.7,3.3c-1.4,2.1-3.8,3.3-6.3,3.5c-5.1,0.3-9.5-2.6-14.2-3.8
			c-0.3-0.1-0.5-0.2-0.6-0.4c0-0.2-0.1-0.4-0.1-0.6c0-0.2-0.1-0.3-0.2-0.5c0,0,0,0,0,0c0,0,0,0,0,0c-0.2-0.2-0.4-0.3-0.7-0.3
			c-0.1,0-0.2,0-0.4,0.1c-0.3,0.1-0.5,0.2-0.6,0.5c-0.5,0.3-0.8,0.9-0.5,1.5c0.5,0.9,1.1,1.6,1.9,2.2c0.5,0.7,1,1.3,1.7,1.8
			c0.8,0.6,1.8,0.9,2.8,1.2c0.9,0.2,1.9,0.4,2.7,1.1c0.1,0.1,0.3,0.2,0.4,0.2c0.9,1.3,1.7,2.8,2.3,4.3c0.3,0.9,2,1.2,2.2,0
			c0.2-1.2,1.2-1.9,2.3-1.8c-1.1,6-2.1,12-2.9,18.1c-0.2,0.3-0.4,0.6-0.6,0.9c-0.4,0.1-0.7,0.5-0.7,1c0,0,0,0,0,0
			c-0.1,0.2-0.2,0.3-0.3,0.5c0,0-0.1,0.1-0.1,0.1c-0.1,0.1-0.1,0.1-0.2,0.2c0,0-0.1,0.1-0.1,0.1c0,0,0,0-0.1,0c0,0,0,0,0,0
			c0,0,0,0-0.1,0c0,0,0,0,0,0c0,0-0.1,0-0.1,0c0.2,0,0,0-0.1,0c0,0,0,0-0.1,0c0,0,0,0-0.1,0c0,0-0.2-0.1-0.2-0.1
			c-0.1,0-0.1-0.1-0.1-0.1c0,0,0,0,0,0c0,0-0.1-0.1-0.1-0.1c0,0-0.1-0.1-0.1-0.1c0-0.1-0.1-0.2-0.1-0.3c-0.1-0.3,0-0.8,0-1.1
			c0.2-1.1,0.5-2.2,0.2-3.4c-0.1-0.5-0.7-0.7-1.1-0.6c-0.4,0.1-0.6,0.5-0.6,0.9c-0.2-0.1-0.5-0.1-0.7-0.1c-5.3,1.8-8.9,5.9-13.3,9
			c-0.5,0.2-1.1,0.4-1.6,0.6c-1.8,0.8-3.6,1.7-5.4,2.6c0,0,0,0-0.1,0c-0.9,0-1.8,0-2.7-0.1c-0.8-0.1-1.7-0.3-2.5-0.4
			c-2.2-0.9-4-2.7-5.2-4.7c-0.4-0.7-1.2-0.6-1.7-0.2c-0.2-6.6,1.5-13.3,2.2-19.7c0.4-3.2,0.4-7.4-3-9.1c-0.6-0.3-1.3-0.5-2.1-0.6
			c-1.1,0.7-2.2,1.3-3.3,2c0,0.1,0,0.1,0,0.2c-1.1,3.1,2,5.4,2.2,8.4c0.3,3.7-2.5,5.7-4.9,8.1c-5.5,5.4-8,14.5-4.5,21.4
			c0.2,0.5,0.1,1-0.1,1.3c0.1,0.3,0.3,0.6,0.4,0.9c-0.7-0.1-1.5-0.1-2.2,0c-14.1-5.8-23.3-20.1-27.1-34.2c-0.8-2.8-4.8-1.5-4.4,1.2
			c1.3,8.7,4.2,17,8.6,24.7c-8.8-5.6-16-13.4-20.9-22.6c-0.8-1.6-3.9-1.4-4.1,0.5c-0.2,1.1-0.2,2.3-0.3,3.4
			c-0.6-1.1-1.1-2.2-1.6-3.3c-0.5,0-1-0.2-1.2-0.6c-0.7-1.5-1.2-3.1-1.6-4.6c-0.2-0.2-0.3-0.4-0.3-0.8v-0.4
			c-0.8-3.7-1.3-7.5-2.7-11.1c-0.5,0.2-0.9,0.4-1.2,0.8c-2.5,3.8-3.9,8-4.4,12.4c-0.4-1.5-0.8-3.1-1-4.7c-0.1-5.3,0.6-10.7,1.9-15.9
			c0.9-3.6,2.1-7.1,3.5-10.5c3.4-4.8,6.1-9.9,8-15.4c0.9-1.4,1.7-2.8,2.6-4.2c-1.2-1.8-2.3-3.8-2.8-5.9c-0.4-2.2-0.1-4.6,2.2-5.7
			c1.3-0.7,2.9-0.8,4.3-0.7c1.4,0.1,2.8,0.5,3.9,1.5c0.5,0.5,0.8,1,1,1.6c0.2,0,0.3,0,0.5,0c3.1,0,4.4-2.9,5.7-5.1
			c3.1-5.6,5.6-12.8,1.8-18.7c-1.2-1.9-2.7-3.3-4.4-4.4c6.5-0.7,12.9,2.1,18.2,5.7c3.1,2.1,6,4.5,8.9,6.8c2.2,1.8,4.4,3.5,6.6,5.3
			c1.9,2.2,4,4.3,6.2,6.2c2.5,2.2,5.2,4.3,7.8,6.4c0.1,0.2,0.2,0.3,0.4,0.4c2.6,1.7,4.7,4.1,5.8,6.9c0.1,0.1,0.1,0.3,0.2,0.4
			c0.1,0.3,0.1,0.7,0.1,1.1c0,2.2-1,4.2-2.3,6.1c0.3,0.3,0.6,0.6,1,0.8c8.6,3.9,16.9,8.3,24.9,13.3c0.1,0,0.2,0,0.3,0.1
			c5.9,2.9,11.4,6.3,16.5,10.3c0.5,0.2,1.1,0.4,1.5,0.7c1.2,0.9,1.9,2,2.4,3.4C845.7,325.7,845.4,326.3,844.9,326.6z"/>
	</g>
	<g class="st11">
		<path class="st12" d="M561,389.9"/>
		<path class="st12" d="M516.7,350.2c-0.3-0.3,0.2-1.2,0.4-1.9c11.2-35.9,34.2-65,69.2-86.9c-1.6-0.9-3.2-1.8-4.7-2.8
			c-1.4-0.9-2.6-1.9-3.4-3c-27.3,19.6-46.4,44.5-58.2,73.7c-4.1,10.2-6.6,20.7-7.3,31.7c1.5-1.5,2.2-3.1,3.1-4.3
			C516.9,355,519.5,352.7,516.7,350.2z"/>
		<path class="st12" d="M892.1,354.4c-9.2-41.1-34.7-73.4-76.6-96.4c-1.1,2.4-3.1,4.4-5.8,5.3c0,0,0.1,0,0.1,0
			c36.7,19.3,60.1,46.7,74.5,79.6c3.8,8.6,6.4,17.5,9,26.4c0.1-0.5,0.2-1.1,0.2-1.6C893.1,363.3,893.1,358.7,892.1,354.4z"/>
		<path class="st12" d="M442,268.9c-7.6-2.8-15.7-3.7-23.9-3.9c-14.1-0.4-28,0.9-41.8,3c-7.4,1.1-14.8,2.4-22,4.2
			c1.6,0,3.2,0,4.9-0.2c18.5-2.5,37.1-3.7,55.7-0.7c8.3,1.3,16.4,3.4,21.7,9c8.2,8.6,5.7,13.2-4.4,16.8c-1.2,0.4-2.3,0.8-3.5,1.2
			c-0.6,0.2-1.3,0.4-2,0.6c-0.2,0.1-0.4,0.1-0.6,0.2c-0.7,0.2-1.4,0.3-2.2,0.5c-0.1,0.1-0.3,0.2-0.4,0.3c-1.1,0.4-2.3,0.6-3.6,0.7
			c-0.1,0-0.2,0-0.3,0c-1.2,0.2-2.4,0.4-3.7,0.6c-0.7,0.1-1.3,0.2-2,0.3c-10.1,1.4-20.4,1.6-30.8,0.9c-4.1-0.3-8.1-0.9-12-2
			c-5.7-1.1-11.7-4.4-11.5-9.9c0-0.1,0-0.1,0.1-0.2c0-0.4,0.1-0.8,0.2-1.1c0.5-1.9,1.5-3.7,2.7-5.3c1.1-1.4,2.2-2.8,3.5-4
			c-2.9,0.1-5.7,0.4-8.6,0.3c-0.4,0-0.6-0.2-0.7-0.4c-13.1,1-24.8,3.9-33.5,13.2c-2.9,3.1-5.8,6.1-8.1,9.5c-0.8,1.1-1.5,2.2-2.2,3.3
			c-0.4,1.2-1.3,2.2-2.2,3.2c-0.4,0.7-0.9,1.3-1.3,1.9c-0.8,1.3-1.4,2.5-2.4,3.7c-0.2,0.3-0.4,0.5-0.7,0.8c-0.4,0.6-0.8,1.2-1.2,1.8
			c-0.9,1.3-1.8,2.8-3.3,4c-0.4,0.6-0.9,1.1-1.5,1.6c0,0,0,0,0,0c0,0.4-0.3,0.7-0.7,0.7c-0.6,0.3-1.4,0.1-1.3-0.6c0-0.1,0-0.2,0-0.2
			c0-0.2,0-0.3,0.1-0.5c0.1-0.5,0.2-1,0.3-1.5c0.4-3.5,1.8-6.9,3.6-10c0.2-2.5,1.3-5,2.6-7.2c1.6-2.8,3.7-5.3,5.8-7.8
			c0.1-0.1,0.1-0.2,0.2-0.2c0,0,0,0,0,0c1.7-2.9,3.5-5.8,5.9-8.3c0.8-0.8,1.7-1.7,2.5-2.5c0.9-0.9,1.8-1.8,2.9-2.7
			c5.3-5.9,12.3-9.6,21.2-10.9c0.4-0.1,0.7-0.1,1.1-0.2c0.7-0.4,1.4-0.8,2.1-1.1c0.3-0.1,0.6-0.3,0.9-0.4c0.5-0.3,0.9-0.6,1.3-0.9
			c0.8-0.6,1.6-1.2,2.5-1.7c0.3-0.1,0.7-0.3,1-0.3c0.2-0.2,0.4-0.4,0.5-0.6c-0.9,0.2-1.8,0.4-2.6,0.5c-3.2,1.2-6.8,1.3-10.2,1.9
			c-3,0.9-5.9,2-8.7,3.3c-4.1,2-7.8,4.5-11.4,7.1c-3.3,2.4-6.5,5.1-9.3,7.9c-2.7,3.3-5.1,6.9-7.2,10.8c-6.8,12.9-9.9,26.5-12.2,40.3
			c-1,5.9-1.8,11.7-1.9,18.5c2.9-4.7,3.5-9.1,4.2-13.4c3-19.8,12.9-27.7,33-31.3c10.6-1.9,21.3-2.3,32.1-2.4
			c18.8-0.1,37.6,1.1,56.4,0.5c8.6-0.3,17.1-0.9,25.3-3.3c7.8-2.2,13.9-5.9,16-12.8C460,282.8,454.3,273.4,442,268.9z"/>
		<path class="st12" d="M459.8,317.6c-1.2,0-1.2,1.6,0,1.6C461,319.2,461,317.6,459.8,317.6z"/>
		<path class="st12" d="M457.9,280.9c-0.5-1.7-1.2-3.2-2.5-4.6c-2.6-3-6.5-5.1-10.4-6.7c-8.5-3.5-18.2-5-27.5-5.7
			c-9.7-0.8-19.6-0.4-29.2,1.1c-6.8,1-13.3,2.9-19.9,4.4c-3.5,0.4-7.1,0.8-10.6,1.3c-2,0.3-3.9,0.6-5.8,0.9
			c-0.4,0.1-0.6,0.3-0.6,0.6c3.1,0,6.1,0.1,9.2-0.3c2.2-0.3,4.4-0.5,6.6-0.6c0.5-0.1,1-0.2,1.4-0.3c9.1-0.9,18.2-1.3,27.4-1.2
			c12.5,0.2,26.1,1.8,36.5,8.4c1.1,0.7,2.1,1.5,3.1,2.4c0.6,0.7,1.1,1.4,1.6,2.2c1.1,1.8,2.2,4,2.6,6.1c0,0.7-0.1,1.4-0.3,2.2
			c-0.8,2.8-3.1,4.4-6.1,5.4c-1,0.4-2.1,0.7-3.2,1c0,0.2-0.1,0.5-0.4,0.6c-1.8,0.7-3.6,1.1-5.5,1.4c-0.1,0.2-0.3,0.3-0.5,0.4
			c-1.1,0.4-2.3,0.6-3.6,0.7c-0.2,0-0.4-0.1-0.6-0.2c-0.6,0.2-1.2,0.4-1.8,0.5c-0.1,0-0.2,0-0.3,0c-1.8,0.4-3.6,0.7-5.6,0.6
			c-0.2,0-0.4-0.1-0.5-0.2c-1,0.1-1.9,0.3-2.9,0.4c-1.8,0.1-3.5,0.3-5.3,0.4c-6.9,0.4-13.8,0.3-20.7-0.3c-2.7-0.3-5.5-0.6-8.2-1.1
			c-2.3-0.1-4.9-0.7-7.3-1.6c-0.7-0.3-1.4-0.6-2.1-1c-3-1.7-5.2-4.3-5.1-7.6c0-0.1,0-0.1,0.1-0.2c0-0.4,0.1-0.8,0.2-1.1
			c0.5-1.9,1.5-3.7,2.7-5.3c1.1-1.4,2.2-2.8,3.5-4c-2.9,0.1-5.7,0.4-8.6,0.3c-0.4,0-0.6-0.2-0.7-0.4c-3.4,0.1-6.7,0.4-10,0.9
			c-6,1-11.6,3.3-16.4,6.6c-1,0.7-2,1.5-3,2.2c-0.3,0.2-0.6,0.4-0.9,0.5c-3.8,2.1-7,4.6-9.2,8c-0.2,0.3-0.3,0.6-0.4,0.8
			c-1.5,1.6-2.9,3.4-4.1,5.2c-1.3,2-2.3,4.1-3.6,6.2c-1.3,2.2-2.8,4.3-4.4,6.3c-1.5,1.2-3.1,2.3-4.5,3.6c-0.6,0.5-1.1,1.1-1.6,1.7
			c0.1-0.4,0.1-0.9,0.3-1.3c0.4-3.5,1.8-6.9,3.6-10c0.2-2.5,1.3-5,2.6-7.2c1.6-2.8,3.7-5.3,5.8-7.8c0.1-0.1,0.1-0.2,0.2-0.2
			c0,0,0,0,0,0c1.7-2.9,3.5-5.8,5.9-8.3c0.4-0.4,0.7-0.8,1.1-1.1c0.5-0.6,1-1.2,1.5-1.8c0.5-0.4,1-0.7,1.5-1.1
			c1.3-1.2,2.6-2.3,4.1-3.3c1.6-1.1,3.2-2.1,4.8-3c0.3-0.2,0.6-0.3,0.9-0.5c1.6-0.8,3.2-1.6,5-2.1c0.1,0,0.3,0,0.4,0
			c2.5-1,5.1-1.9,7.6-3c0.9-0.5,1.9-1,2.9-1.5c0.3-0.1,0.6-0.3,0.9-0.4c0.5-0.3,0.9-0.6,1.3-0.9c0.8-0.6,1.6-1.2,2.5-1.7
			c0.3-0.1,0.7-0.3,1-0.3c0.2-0.2,0.4-0.4,0.5-0.6c-0.9,0.2-1.8,0.4-2.6,0.5c-3.2,1.2-6.8,1.3-10.2,1.9c-3,0.9-5.9,2-8.7,3.3
			c-4.1,2-7.8,4.5-11.4,7.1c-3.5,2.6-6.9,5.3-9.8,8.4c-2.9,3.1-5.2,6.5-7.3,10c-1.7,2.8-3.2,5.7-4.5,8.6c-1.8,5.5-3.4,11-5.1,16.5
			c0,2.3-0.2,4.6-0.5,6.8c0,0.1-0.1,0.3-0.3,0.4c-0.2,1.1-0.3,2.3-0.4,3.4c-2,7.4-3.5,14.9-3.8,22.6c-0.1,2,3.5,2,3.6,0
			c0.3-7.1,1.6-14.2,3.4-21.2c0.2-0.1,0.5-0.2,0.6-0.5c0.6-1.5,1-3,1.4-4.5c0.8-1.2,1.8-2.3,2.8-3.4c2-2.1,4-4.3,6-6.4
			c0.3-0.2,0.5-0.5,0.8-0.7c7.2-4.5,15.6-7.1,24.5-7.8c5.1-0.4,10.3-0.4,15.5-0.5c5.2-0.1,10.4-0.1,15.5-0.1
			c5.2,0.1,10.4,0.2,15.5,0.6c5.2,0.4,10.3,1.2,15.5,1.1c0,0,0.1,0,0.1,0c0.7,0.5,1.7,0.8,2.6,0.8c8.8-0.6,17.6-1.1,26.3-1.8
			c8.2-0.7,16.5-1.9,23.6-5.8c6.7-3.6,11.2-9.3,13.2-16C460.7,286.1,460.3,282.9,457.9,280.9z"/>
		<path class="st12" d="M610.1,199.8c0-1-0.1-2.1-0.2-3.1c-0.2-4.1-0.5-8.2-0.7-12.3c0-0.5-0.5-0.8-1-0.7c0,0-0.1-0.1-0.1-0.1
			c-0.1,0-0.2,0-0.2,0c-0.4,0.1-0.8,0.1-1.3,0.2c0,0,0,0,0,0.1c-0.4,0-0.8,0.1-1.1,0.2c-0.4,0.1-0.8,0.2-1.2,0.3
			c-1.9,0.4-3.8,0.7-5.8,0.9c-3.8,0.5-7.5,1.9-10.8,3.8c-0.8,0.3-1.5,0.6-2.3,0.8c-0.2,0-0.3,0-0.5,0c-4.2,1.6-7.8,4.6-10.9,7.4
			c-1.9,1.6-3.6,3.4-5.1,5.3c-0.4,0.6-0.8,1.3-1.1,1.9c-0.4,0.4-0.6,0.8-0.7,1.3c-1.3,2.5-2.5,5-3.8,7.5c-3.8,6-8.2,11.8-13.4,16.9
			c-3,2.5-6.2,4.8-9.6,6.9c-2.6,1.6-5.4,3.1-8.1,4.5c-1.2,0.6-2.5,1.4-3.9,2c-1.5,0.4-2.9,0.8-4.4,1.1c-0.2,0-0.4,0-0.6,0
			c-0.3,0-0.6,0.1-0.7,0.3c-3.9,0.8-7.9,1.4-11.8,1.8c-13.5,1.4-27.2,1.1-40.6,3.2c0,0-0.1,0-0.1,0c-15.7,1.3-31.3,2.6-47,4
			l-14.2,1.2c-0.1,0-0.1,0-0.2,0c0,0-0.1,0-0.1,0c-1-0.5-1.9,0.9-0.9,1.4c3.5,1.6,7.5,1.1,11.3,0.9c4.2-0.3,8.3-0.5,12.5-0.6
			c8.4-0.1,16.9,0.5,24.8,3c0.2,0.1,0.4,0.1,0.6,0.2c2.8,1.3,5.3,3.2,7.4,5.3c0,0.2,0.1,0.3,0.2,0.5c3.4,3.2,8.5,1.9,12.7,0.9
			c5.3-1.3,10.6-2.4,16-3.3c5.4-0.9,10.8-1.7,16.2-2.4c5.3-0.7,10.7-1.1,15.8-2.4c5.1-1.3,9.9-3.5,14.3-6.2c0.2,0,0.3,0,0.5-0.1
			c5.9-3.6,10.2-8.6,14.3-13.6c4.6-5.7,9-11.6,13.1-17.6c2-3,4.3-5.6,7.4-7.8c2.8-2,6.1-3.7,9.4-5.1c2.2-0.9,4.4-1.7,6.7-2.3
			c0.1,0,0.1,0,0.2,0c0.6-0.1,1.1-0.2,1.6-0.5c4.2-1,8.6-1.6,13-1.7c1.4,0,3.4,0.2,4.1-1.2C610.3,201.5,610.1,200.6,610.1,199.8z"/>
		<path class="st12" d="M959,321.2c-0.7-2.6-1.4-5.2-2.3-7.8c-1.2-11.3-3.2-22.6-11-31.9c-7.4-8.8-18-15-29.4-19.1
			c-5.8-2.1-11.9-3.5-18-4.9c-0.1,0-0.1,0-0.2,0c-0.6-0.1-1.2-0.3-1.7-0.4c-4.2-0.1-8.4-1.1-12.3-2.3c-3.3-1-6.6-2.3-9.7-3.9
			c-0.4-0.1-0.7-0.2-1.1-0.4c-7.3-2.5-14.4-5.4-21.5-8.3c-6.2-2.6-12.7-5-18.6-8.3c-3-1.7-5.8-3.7-7.9-6.2c-2.3-2.7-3.6-6-5-9.1
			c-3.2-6.9-7.1-13.5-12-19.7c-0.6-0.8-1.9-1.4-3-1.1c-1.4,0.5-2.9,0.9-4.3,1.4c-2.2,0.7-2.3,3-1,4.1c0,0.1,0.1,0.1,0.1,0.2
			c0.1,0,0.2,0.1,0.3,0.1c3.1,2.1,5.5,4.8,7.5,7.8c0.5,0.6,1.1,1.3,1.6,2c0.1,0.1,0.2,0.2,0.3,0.3c0.2,0.6,0.4,1.1,0.6,1.7
			c1.2,2.1,2.3,4.3,3.3,6.4c0.9,1.8,1.6,3.6,2.2,5.5c0.7,2.1,1.4,4.1,2.6,5.9c1.7,2.4,3.7,4.5,5.4,6.8c5.9,6.8,14.9,11.7,23.9,15
			h0.3c0.4,0,0.7,0.2,1,0.4c0.7,0.2,1.4,0.5,2,0.7c1.2,0.3,2.4,0.6,3.6,1c4.1,1.2,8,1.8,12.3,2.1c3.7,0.2,7.3,0.4,10.9,1.1
			c3.5,0.6,6.9,1.6,10.3,2.4c7.1,1.7,14.2,3.6,21,6c5.9,2,11.7,4.3,16.9,7.5c3.2,1.9,6,4.2,8.4,6.8c1.2,0.8,2.4,1.6,3.4,2.7
			c0.5,0.5,0.9,1,1.2,1.6c0.2,0.1,0.3,0.2,0.5,0.4c3.1,4.2,5.2,8.7,7.1,13.3c2,4.8,3.9,9.5,6.3,14.1c2.1,4,3.4,8.1,4.9,12.2
			c0.3,0.8,0.6,1.6,0.9,2.3c0.1-1.6,0.3-3.2,0.3-4.9C959.3,323.4,959.1,322.3,959,321.2z"/>
		<path class="st12" d="M665.2,185.9c18.4-2.4,36.9-4,55.4-3.8c16,0.2,32.3,2.1,47.7,6c5.1,1.3,10.1,3.1,14.5,5.6l0-1.1
			c-0.5-3.8-0.9-7.7-1.2-11.5c-0.4-0.1-0.9-0.2-1.3-0.3c-0.5-0.1-1,0.2-1.2,0.5c0,0,0,0-0.1,0c-1.1,0.7-2.2,0.4-3.2-0.4
			c-0.9-0.8-1.6-2-2.1-3c-0.6-1.2-1.1-2.6-1.8-3.7c0-0.1-0.1-0.1-0.1-0.2c-0.9-1.5-2.1-2.8-3.8-3.3c-2.2-0.7-4.6-0.1-6.7-0.9
			c-0.1,0-0.2-0.1-0.3-0.1c-0.1-0.1-0.2-0.1-0.3-0.2c-0.9-0.7-1.6-1.6-2.5-2.3c-1.8-1.4-4-1.5-6.2-1.6c-2.8-0.1-5.6-0.2-8.4-0.3
			c-5.7-0.2-11.4-0.4-17.1-0.6c-0.4,0-0.7,0.1-0.9,0.4c-19-0.8-38-1.4-57-2.1c-2.7-0.1-5.5-0.5-8.2-0.1c-1.1,0.1-2.1,0.4-3,1.1
			c-1,0.7-1.6,1.7-2.6,2.5c-1.7,1.4-4.1,1.3-6.2,1.4c-2.2,0.1-4.3,0.3-6.2,1.3c-0.4,0.2-0.7,0.8-0.6,1.3c1.1,4.3-2.7,8.3-7,7.2
			c-0.1,0-0.2,0-0.2,0c-0.6-0.6-1.9-0.4-2,0.7l-0.4,12.2C642.4,187.2,654.4,187.3,665.2,185.9z"/>
	</g>
	<text transform="matrix(1 0 0 1 433.5583 489.1522)" class="st13 st14 st15">Sign </text>
	<text transform="matrix(1.0669 0 0 1 808.8668 469.5057)" class="st13 st14 st16">Media </text>
	<text transform="matrix(1 0 0 1 247.2233 469.5018)" class="st13 st14 st15">Fire</text>
</g>
</svg>
